<svg id="Layer_1" xmlns="http://www.w3.org/2000/svg" viewBox="0 0 1021.5 211.9"><style>.st1{fill:#00b373}</style><path d="M283.1 210.6h-107c-4.6 0-6.7-2.3-6.3-6.9L187 7c.4-4.6 2.9-6.9 7.5-6.9h107c4.4 0 6.3 2.3 5.9 6.9l-1.9 22.3c-.4 4.6-2.8 6.9-7.1 6.9H230c-2.6 0-4 1.2-4.2 3.6l-3.7 42.6c-.2 2.4 1 3.6 3.6 3.6h56c4.6 0 6.7 2.3 6.3 6.9l-2 22.3c-.4 4.6-2.9 6.9-7.5 6.9h-56c-2.6 0-4 1.2-4.2 3.6l-4 45.5c-.2 2.4 1 3.6 3.6 3.6h68.4c4.4 0 6.3 2.3 5.9 6.9l-1.9 22.3c-.4 4.3-2.8 6.6-7.2 6.6m115.5 0h-35.7c-17.2 0-30.2-4.6-38.7-13.7-8.6-9.2-12.1-22.4-10.6-39.6l9.1-103.8c1.5-17.2 7.4-30.4 17.5-39.6C350.4 4.7 364.1.2 381.3.2H417c17 0 29.9 4.6 38.6 13.9s12.3 22.4 10.8 39.4l-1.3 15.4c-.4 4.8-3 7.2-7.8 7.2h-27.5c-4.6 0-6.7-2.4-6.2-7.2l1.2-13.4c.6-7-.4-11.9-3.1-14.9-2.7-2.9-7.5-4.4-14.5-4.4h-22.3c-6.8 0-11.7 1.5-15 4.4-3.2 2.9-5.1 7.9-5.7 14.9l-8.7 99.8c-.6 7 .4 11.9 3.1 14.9 2.7 2.9 7.4 4.4 14.2 4.4h22.3c7 0 12.1-1.5 15.3-4.4 3.2-2.9 5.1-7.9 5.7-14.9l1-13.5c.4-4.8 2.9-7.2 7.5-7.2h27.5c4.8 0 7 2.4 6.6 7.2l-1.3 15.4c-1.5 17-7.4 30.2-17.7 39.4-10.4 9.3-24.1 14-41.1 14m152.1 0h-27.5c-4.8 0-7-2.3-6.6-6.9l14.3-164c.2-2.4-.9-3.6-3.3-3.6h-37.3c-4.6 0-6.7-2.3-6.3-6.9l1.9-22.3c.4-4.6 2.9-6.9 7.5-6.9h123.7c4.6 0 6.7 2.3 6.3 6.9l-1.9 22.3c-.4 4.6-2.9 6.9-7.5 6.9h-37.3c-2.6 0-4 1.2-4.2 3.6l-14.3 164c-.4 4.6-2.9 6.9-7.5 6.9M686.3 6.9l-17.2 196.8c-.4 4.6-2.9 6.9-7.5 6.9h-27.8c-4.6 0-6.7-2.3-6.3-6.9L644.7 7c.4-4.6 2.9-6.9 7.5-6.9H680c4.6 0 6.7 2.3 6.3 6.8m240.3 167.6h23.2c7 0 12.1-1.5 15.3-4.4s5.1-7.9 5.7-14.9l8.7-99.8c.6-7-.4-11.9-3.1-14.9-2.7-2.9-7.5-4.4-14.5-4.4h-23.2c-7 0-12 1.5-15.1 4.4s-4.9 7.9-5.6 14.9l-8.7 99.8c-.6 7 .4 11.9 3 14.9 2.5 3 7.3 4.4 14.3 4.4m26.9 36.1h-36.7c-17.2 0-30.2-4.6-38.7-13.7-8.6-9.2-12.1-22.4-10.6-39.6l9.1-103.8c1.5-17.3 7.4-30.5 17.5-39.7C904.3 4.6 918 .1 935.2.1h36.7c17.2 0 30.2 4.6 38.7 13.7 8.6 9.2 12.1 22.4 10.6 39.6l-9.1 103.8c-1.5 17.2-7.4 30.4-17.5 39.6-10.1 9.2-23.8 13.8-41.1 13.8M814.4 70.5h27.8c4.6 0 7.1-2.4 7.5-7.2l.9-9.8c1.5-17-2.1-30.2-10.6-39.4C831.4 4.8 818.6.2 801.6.2h-34.7c-17.2 0-31 4.6-41.1 13.7-10.2 9.2-16 22.4-17.5 39.6l-9.2 103.7c-1.5 17.2 2 30.4 10.6 39.6s21.5 13.7 38.7 13.7h34.7c17 0 30.6-4.6 40.8-13.9 10.2-9.3 16-22.4 17.5-39.4l4.8-54.7c.4-5-1.9-7.5-6.9-7.5h-64.8c-5.1 0-8.7 5.5-6.6 9.9l8.4 17c2.8 5.6 8.5 9.1 15 9.1h7.1c2.4 0 3.5 1.2 3.3 3.6l-1.8 20.6c-.6 7-2.5 11.9-5.6 14.9-3.1 2.9-8.1 4.4-15.1 4.4h-21.3c-6.8 0-11.5-1.5-14.2-4.4s-3.7-7.9-3.1-14.9l8.7-99.8c.6-7 2.5-11.9 5.7-14.9 3.2-2.9 8.2-4.4 15-4.4h21.3c7 0 11.8 1.5 14.3 4.4 2.6 2.9 3.6 7.9 2.9 14.9l-.7 7.9c0 4.8 2 7.2 6.6 7.2" fill="#fff"/><path class="st1" d="M130.5 36.2c6.5 0 12.8-3.5 16.6-9.1l11.4-17c3-4.4.3-9.9-4.8-9.9H71.8C54.6.2 40.9 4.8 30.7 13.9 20.6 23 14.8 36.1 13.2 53.1L9.4 97.8C8 114.9 11.5 127.9 20 137c8.6 9.2 21.5 13.7 38.7 13.7h18.7c3.6 0 5.7-2.9 6.1-6.9l1.9-21.9c.3-4-2.6-7.2-6.6-7.2H68.4c-6.8 0-11.5-1.5-14.2-4.4s-3.7-7.9-3.1-14.9l3.5-40c.6-7 2.5-11.9 5.7-14.9 3.2-2.9 8.2-4.4 14.9-4.4l55.3.1z"/><path class="st1" d="M83.6 60c-3.8 0-5.7 2.9-6.1 6.9l-1.9 21.9c-.3 4 2.6 7.2 6.6 7.2h10.4c6.8 0 11.5 1.5 14.2 4.4s3.7 7.9 3.1 14.9l-3.5 40c-.6 7-2.5 11.9-5.7 14.9-3.2 2.9-8.2 4.4-14.9 4.4H29.3c-6.5 0-12.8 3.5-16.6 9.1l-11.4 17c-3 4.4-.3 9.9 4.8 9.9h83.1c17.2 0 30.9-4.6 41.1-13.7 10.1-9.1 15.9-22.2 17.5-39.2l3.9-44.6c1.4-17.1-2.1-30.1-10.6-39.2-8.6-9.2-21.5-13.7-38.7-13.7H83.6V60z"/></svg>