<svg id="Layer_1" xmlns="http://www.w3.org/2000/svg" viewBox="0 0 2000 412.1"><style>.st0{fill:#fff}</style><path class="st0" d="M310.5 19.4c5.8-8.6.5-19.4-9.4-19.4H140.7C107 0 80.1 9 60.2 26.9 40.4 44.7 29 70.4 25.9 103.8l-7.7 87.5c-2.8 33.4 4.1 59.1 20.8 76.9 16.8 17.9 42.1 26.9 75.8 26.9h36.6v-.2c7.2-1 11.2-5.4 11.9-13.2l3.8-42.9c.7-7.8-5.1-14.1-12.9-14.1h-20.4c-13.2 0-22.5-2.9-27.8-8.6-5.3-5.8-7.3-15.5-6.1-29.2l6.9-78.4c1.2-13.7 4.9-23.4 11.2-29.2 6.3-5.8 16-8.7 29.3-8.7h108.3c12.8 0 25.2-6.8 32.6-17.8l22.3-33.4z"/><path class="st0" d="M2.4 392.7c-5.8 8.6-.5 19.4 9.4 19.4h162.7c33.8 0 60.6-9 80.5-26.9 19.8-17.8 31.2-43.4 34.3-76.8l7.7-87.5c2.8-33.4-4.1-59.1-20.8-76.9-16.8-17.9-42.1-26.9-75.8-26.9h-36.6v.2c-7.2 1-11.2 5.4-11.9 13.2l-3.8 42.9c-.7 7.8 5.1 14.1 12.9 14.1h20.4c13.2 0 22.5 2.9 27.8 8.6 5.3 5.8 7.3 15.5 6.1 29.2l-6.9 78.4c-1.2 13.7-4.9 23.4-11.2 29.2-6.3 5.8-16 8.7-29.3 8.7H57.3c-12.8 0-25.2 6.8-32.6 17.8L2.4 392.7zm551.8 19.4H344.6c-9 0-13.1-4.5-12.3-13.5L366 13.5c.8-9 5.7-13.5 14.6-13.5h209.6c8.5 0 12.4 4.5 11.6 13.5L598.1 57c-.8 9-5.5 13.5-14 13.5h-134c-5.1 0-7.9 2.4-8.3 7.1l-7.3 83.3c-.4 4.7 2 7 7.1 7h109.6c9 0 13.1 4.5 12.3 13.5l-3.8 43.6c-.8 9-5.7 13.5-14.6 13.5H435.4c-5.1 0-7.9 2.4-8.3 7l-7.8 89.1c-.4 4.7 2 7 7.1 7h133.9c8.5 0 12.4 4.5 11.6 13.5l-3.8 43.6c-.7 8.9-5.4 13.4-13.9 13.4m226 0h-69.9c-33.8 0-59-9-75.8-26.9-16.8-17.9-23.7-43.8-20.8-77.5l17.8-203.2c3-33.7 14.4-59.6 34.3-77.5 20-18 46.8-27 80.6-27h69.9c33.3 0 58.5 9.1 75.5 27.2 17 18.2 24 43.9 21.1 77.2l-2.6 30.1c-.8 9.4-5.9 14.1-15.3 14.1h-53.8c-9 0-13-4.7-12.2-14.1l2.3-26.3c1.2-13.7-.8-23.4-6.1-29.2-5.3-5.8-14.7-8.6-28.4-8.6h-43.6c-13.2 0-23 2.9-29.3 8.6-6.3 5.8-10 15.5-11.2 29.2l-17.1 195.5c-1.2 13.7.8 23.4 6.1 29.2 5.3 5.8 14.5 8.6 27.8 8.6h43.6c13.7 0 23.6-2.9 29.9-8.6 6.3-5.8 10-15.5 11.2-29.2l2.3-26.3c.8-9.4 5.7-14.1 14.7-14.1H885c9.4 0 13.7 4.7 12.9 14.1l-2.6 30.1c-2.9 33.3-14.5 59.1-34.6 77.2-20.4 18.3-47.2 27.4-80.5 27.4m297.8 0h-53.8c-9.4 0-13.7-4.5-12.9-13.5l28.1-321.1c.4-4.7-1.7-7.1-6.4-7.1h-73.1c-9 0-13.1-4.5-12.3-13.5l3.8-43.6C952.1 4.5 957 0 966 0h242.2c9 0 13.1 4.5 12.3 13.5l-3.8 43.6c-.8 9-5.7 13.5-14.6 13.5h-73c-5.1 0-7.9 2.4-8.3 7.1l-28.1 321.1c-.9 8.8-5.7 13.3-14.7 13.3m265.5-398.6l-33.7 385.2c-.8 9-5.7 13.5-14.6 13.5h-54.5c-9 0-13.1-4.5-12.3-13.5l33.7-385.2c.8-9 5.7-13.5 14.6-13.5h54.5c9 0 13.1 4.5 12.3 13.5m470.4 328.1h45.5c13.7 0 23.6-2.9 29.9-8.6 6.3-5.8 10-15.5 11.2-29.2l17.1-195.5c1.2-13.7-.8-23.4-6.1-29.2-5.3-5.8-14.7-8.6-28.4-8.6h-45.5c-13.7 0-23.5 2.9-29.6 8.6-6.1 5.8-9.7 15.5-10.9 29.2L1780 303.8c-1.2 13.7.7 23.4 5.8 29.2 5 5.7 14.4 8.6 28.1 8.6m52.8 70.5h-71.8c-33.8 0-59-9-75.8-26.9-16.8-17.9-23.7-43.8-20.8-77.5l17.8-203.2c3-33.7 14.4-59.6 34.3-77.5 19.9-18 46.8-27 80.6-27h71.8c33.7 0 59 9 75.8 26.9 16.8 17.9 23.7 43.8 20.8 77.5l-17.8 203.2c-3 33.8-14.4 59.6-34.3 77.5-20 18-46.9 27-80.6 27m-272.4-274.3h54.5c9 0 13.9-4.7 14.7-14.1l1.7-19.2c2.9-33.3-4-59.1-20.8-77.2C1627.6 9.1 1602.5 0 1569.2 0h-67.9c-33.8 0-60.6 9-80.5 26.9-19.9 18-31.4 43.8-34.3 77.6l-17.8 203.2c-3 33.8 4 59.6 20.8 77.6 16.8 17.9 42.1 26.9 75.8 26.9h67.9c33.3 0 60-9.1 79.9-27.2 20-18.2 31.4-43.9 34.3-77.2l9.4-107c.9-9.8-3.6-14.7-13.5-14.7h-126.8c-10 0-17.1 10.8-12.9 19.4l16.5 33.3c5.5 11 16.7 17.8 29.5 17.8h13.9c4.7 0 6.8 2.4 6.4 7.1l-3.5 40.4c-1.2 13.7-4.8 23.4-10.9 29.2-6.1 5.8-15.9 8.6-29.6 8.6h-41.7c-13.2 0-22.5-2.9-27.8-8.6-5.3-5.8-7.3-15.5-6.1-29.2l17.1-195.5c1.2-13.7 4.9-23.4 11.2-29.2 6.3-5.8 16-8.7 29.3-8.7h41.7c13.7 0 23 2.9 28.1 8.7 5 5.8 7 15.5 5.8 29.2l-1.4 15.4c-.8 9.1 3.3 13.8 12.2 13.8"/></svg>