<?xml version="1.0" encoding="UTF-8"?>
<svg xmlns="http://www.w3.org/2000/svg" id="Group_73" data-name="Group 73" viewBox="0 0 232.652 48.628">
  <defs>
    <style>
      .cls-1, .cls-2 {
        fill: #d9d8d6;
      }

      .cls-1 {
        fill-rule: evenodd;
      }
    </style>
  </defs>
  <g id="Group_69" data-name="Group 69" transform="translate(0 0)">
    <path id="Path_15" data-name="Path 15" class="cls-1" d="M22.078,9.23a19.76,19.76,0,1,1-4.635,0V8.945a4.761,4.761,0,1,1,4.635.041V9.23Zm-.2-2.358A2.918,2.918,0,0,0,22.729,4.8a2.968,2.968,0,0,0-5.936,0,2.918,2.918,0,0,0,.854,2.074A2.362,2.362,0,0,1,19.76,5.53h0a2.23,2.23,0,0,1,2.114,1.342Zm9.352,22A11.425,11.425,0,1,0,19.8,40.293,11.435,11.435,0,0,0,31.226,28.868ZM21.915,15.451a13.206,13.206,0,0,1,5.814,2.4,1.428,1.428,0,0,0,1.87-.163l.325-.325a1,1,0,0,0,.325-.854,1.1,1.1,0,0,0-.447-.813,16.673,16.673,0,0,0-7.847-3.253,1.048,1.048,0,0,0-.895.285,1.107,1.107,0,0,0-.366.854v.447a1.476,1.476,0,0,0,1.22,1.423ZM31.267,18.7l-.325.325a1.481,1.481,0,0,0-.163,1.87,13.406,13.406,0,0,1,2.4,5.814,1.476,1.476,0,0,0,1.423,1.22h.447a1.17,1.17,0,0,0,.854-.366,1.19,1.19,0,0,0,.285-.894,16.673,16.673,0,0,0-3.253-7.847,1.1,1.1,0,0,0-.813-.447.957.957,0,0,0-.854.325Zm3.822,11.059h-.447a1.443,1.443,0,0,0-1.423,1.22,13.206,13.206,0,0,1-2.4,5.814,1.428,1.428,0,0,0,.163,1.87l.325.325a1,1,0,0,0,.854.325,1.1,1.1,0,0,0,.813-.447,16.673,16.673,0,0,0,3.253-7.847,1.048,1.048,0,0,0-.285-.894,1.355,1.355,0,0,0-.854-.366ZM29.925,40.334l-.325-.325a1.481,1.481,0,0,0-1.87-.163,13.406,13.406,0,0,1-5.814,2.4,1.476,1.476,0,0,0-1.22,1.423v.447a1.17,1.17,0,0,0,.366.854,1.19,1.19,0,0,0,.895.285A16.673,16.673,0,0,0,29.8,42a1.1,1.1,0,0,0,.447-.813,1,1,0,0,0-.325-.854Zm-11.1,3.822v-.447a1.443,1.443,0,0,0-1.22-1.423,14.205,14.205,0,0,1-5.814-2.44,1.428,1.428,0,0,0-1.87.163l-.325.325a1,1,0,0,0-.325.854A1.1,1.1,0,0,0,9.718,42a16.673,16.673,0,0,0,7.847,3.253,1.048,1.048,0,0,0,.895-.285.969.969,0,0,0,.366-.813ZM8.294,39.033l.325-.325a1.476,1.476,0,0,0,.163-1.87,13.406,13.406,0,0,1-2.4-5.814A1.476,1.476,0,0,0,4.96,29.8H4.473a1.17,1.17,0,0,0-.854.366,1.19,1.19,0,0,0-.285.895,16.673,16.673,0,0,0,3.253,7.847,1.1,1.1,0,0,0,.813.447,1.165,1.165,0,0,0,.895-.325Zm-3.822-11.1H4.92a1.443,1.443,0,0,0,1.423-1.22,13.206,13.206,0,0,1,2.4-5.814,1.428,1.428,0,0,0-.163-1.87L8.294,18.7a1,1,0,0,0-.854-.325,1.1,1.1,0,0,0-.813.447,16.673,16.673,0,0,0-3.253,7.847,1.048,1.048,0,0,0,.285.894.969.969,0,0,0,.813.366ZM9.6,17.362l.325.325a1.476,1.476,0,0,0,1.87.163,13.406,13.406,0,0,1,5.814-2.4,1.476,1.476,0,0,0,1.22-1.423V13.58a1.17,1.17,0,0,0-.366-.854,1.19,1.19,0,0,0-.895-.285,16.673,16.673,0,0,0-7.847,3.253,1.1,1.1,0,0,0-.447.813A1.131,1.131,0,0,0,9.6,17.362Z" transform="translate(0 0)"></path>
    <g id="Group_68" data-name="Group 68" transform="translate(8.416 17.524)">
      <g id="Group_64" data-name="Group 64">
        <g id="Group_62" data-name="Group 62" transform="translate(8.213)">
          <path id="Path_16" data-name="Path 16" class="cls-1" d="M44.031,43.1l3.131,11.344H40.9Z" transform="translate(-40.9 -43.1)"></path>
          <path id="Path_17" data-name="Path 17" class="cls-1" d="M44.031,82.344,47.162,71H40.9Z" transform="translate(-40.9 -59.656)"></path>
        </g>
        <g id="Group_63" data-name="Group 63" transform="translate(0 8.213)">
          <path id="Path_18" data-name="Path 18" class="cls-1" d="M59.944,66.431,48.6,69.562V63.3Z" transform="translate(-37.256 -63.3)"></path>
          <path id="Path_19" data-name="Path 19" class="cls-1" d="M20.7,66.431l11.344,3.131V63.3Z" transform="translate(-20.7 -63.3)"></path>
        </g>
      </g>
      <g id="Group_67" data-name="Group 67" transform="translate(3.334 3.334)">
        <g id="Group_65" data-name="Group 65">
          <path id="Path_20" data-name="Path 20" class="cls-1" d="M53.446,51.3,47.632,61.505,43.2,57.074Z" transform="translate(-37.386 -51.3)"></path>
          <path id="Path_21" data-name="Path 21" class="cls-1" d="M28.9,75.746l10.246-5.814L34.714,65.5Z" transform="translate(-28.9 -59.726)"></path>
        </g>
        <g id="Group_66" data-name="Group 66">
          <path id="Path_22" data-name="Path 22" class="cls-1" d="M53.446,75.746,43.2,69.932,47.632,65.5Z" transform="translate(-37.386 -59.726)"></path>
          <path id="Path_23" data-name="Path 23" class="cls-1" d="M28.9,51.3l5.814,10.205,4.432-4.432Z" transform="translate(-28.9 -51.3)"></path>
        </g>
      </g>
    </g>
  </g>
  <g id="Group_72" data-name="Group 72" transform="translate(48.669 10.205)">
    <g id="Group_70" data-name="Group 70">
      <path id="Path_24" data-name="Path 24" class="cls-2" d="M119.741,43.505h2.48V28.055h-2.48V25.9h14.312v4.594h-2.44V28.218h-6.627V34.56h6.993v2.277h-6.993v6.505h7.075V40.985h2.44V45.66H119.7V43.505Z" transform="translate(-119.7 -25.575)"></path>
      <path id="Path_25" data-name="Path 25" class="cls-2" d="M163.3,43.505h2.48V28.055H163.3V25.9h5.245l9.718,14.19c.325.569.691,1.423.691,1.423h.081s-.122-.976-.122-1.586V28.055h-2.521V25.9H184.2v2.155h-2.48V45.66h-2.765l-9.718-14.19a9.337,9.337,0,0,1-.691-1.423h-.081s.122.976.122,1.586V43.465h2.562v2.2h-7.807V43.505Z" transform="translate(-145.573 -25.575)"></path>
      <path id="Path_26" data-name="Path 26" class="cls-2" d="M221,43.505h2.48V28.055H221V25.9h8.416a13.322,13.322,0,0,1,4.188.488c3.781,1.179,6.262,4.594,6.262,9.392s-2.4,8.132-6.262,9.352a13.587,13.587,0,0,1-4.188.529H221Zm8.295-.122a9.671,9.671,0,0,0,3.375-.488c2.643-.935,4.31-3.456,4.31-7.075,0-3.659-1.667-6.18-4.269-7.156a9.176,9.176,0,0,0-3.375-.447h-3.049V43.383Z" transform="translate(-179.812 -25.575)"></path>
      <path id="Path_27" data-name="Path 27" class="cls-2" d="M275.38,28.055H272.9V25.9h7.766v2.155h-2.48V38.26a5.875,5.875,0,0,0,.773,3.212,5.465,5.465,0,0,0,8.538-.041,6.253,6.253,0,0,0,.772-3.212V28.055h-2.48V25.9h7.766v2.155h-2.48V38.3a8.164,8.164,0,0,1-1.382,4.8,7.627,7.627,0,0,1-6.424,2.887,7.85,7.85,0,0,1-6.505-2.887,7.934,7.934,0,0,1-1.3-4.8V28.055Z" transform="translate(-210.61 -25.575)"></path>
      <path id="Path_28" data-name="Path 28" class="cls-2" d="M329.2,43.505h2.48V28.055H329.2V25.9h8.579a11.483,11.483,0,0,1,3.659.407,5.012,5.012,0,0,1,3.456,5.123,5.336,5.336,0,0,1-4.107,5.53V37a2.631,2.631,0,0,1,.854.935l2.806,4.879a1.343,1.343,0,0,0,1.382.651h.569v2.2h-1.667c-1.667,0-2.074-.325-2.724-1.5l-3.049-5.408c-.488-.854-.854-1.1-2.074-1.1h-2.358v5.814h2.44v2.2h-7.685V43.505Zm9.27-8.091a3.4,3.4,0,0,0,3.578-3.741,3,3,0,0,0-1.83-3.09,7.17,7.17,0,0,0-2.44-.366h-3.293v7.2Z" transform="translate(-244.019 -25.575)"></path>
      <path id="Path_29" data-name="Path 29" class="cls-2" d="M374.7,43.505h1.911l6.3-17.605h3.171l6.3,17.605H394.3v2.2h-6.871v-2.2h2.114L388,39.114H381l-1.545,4.391h2.114v2.2H374.7Zm12.564-6.668-2.4-6.831a6.167,6.167,0,0,1-.325-1.5h-.081a9.87,9.87,0,0,1-.325,1.5l-2.44,6.871h5.57Z" transform="translate(-271.019 -25.575)"></path>
      <path id="Path_30" data-name="Path 30" class="cls-2" d="M427.3,43.505h2.48V28.055H427.3V25.9h5.245l9.718,14.19c.325.569.691,1.423.691,1.423h.081s-.122-.976-.122-1.586V28.055h-2.521V25.9H448.2v2.155h-2.48V45.66h-2.765l-9.718-14.19a9.338,9.338,0,0,1-.691-1.423h-.081s.122.976.122,1.586V43.465h2.561v2.2h-7.807V43.505Z" transform="translate(-302.232 -25.575)"></path>
      <path id="Path_31" data-name="Path 31" class="cls-2" d="M494.542,25.1c2.4,0,7.522.854,7.522,3.9v2.4h-2.6V29.857c0-1.748-3.009-2.4-4.8-2.4-4.229,0-7.319,3.09-7.319,7.6,0,4.676,3.212,8.01,7.522,8.01,1.382,0,4.92-.488,4.92-2.318V39.209h2.6v2.4c0,2.927-4.96,3.9-7.685,3.9A10.039,10.039,0,0,1,484.5,35.183,9.823,9.823,0,0,1,494.542,25.1Z" transform="translate(-336.174 -25.1)"></path>
      <path id="Path_32" data-name="Path 32" class="cls-2" d="M535.841,43.505h2.48V28.055h-2.48V25.9h14.312v4.594h-2.439V28.218h-6.628V34.56h6.993v2.277h-6.993v6.505h7.075V40.985h2.44V45.66H535.8V43.505Z" transform="translate(-366.617 -25.575)"></path>
    </g>
    <g id="Group_71" data-name="Group 71" transform="translate(0.041 24.558)">
      <path id="Path_33" data-name="Path 33" class="cls-2" d="M119.8,95.7h1.382v-8.9H119.8V85.9h3.863v.895H122.28v8.9h1.382v.895H119.8Z" transform="translate(-119.8 -85.737)"></path>
      <path id="Path_34" data-name="Path 34" class="cls-2" d="M132.741,99.893h1.3V94.282c0-.244-.122-.325-.325-.325H132.7V93.1h1.464c.651,0,.935.285.935.854V94.4a3.6,3.6,0,0,1-.041.529h.041a3.352,3.352,0,0,1,3.09-2.033c1.87,0,2.521,1.057,2.521,2.968v3.985h1.3v.854h-2.318V96.112c0-1.179-.2-2.277-1.667-2.277a3.044,3.044,0,0,0-2.887,3.171v2.805h1.3v.854h-3.619v-.773Z" transform="translate(-127.455 -89.891)"></path>
      <path id="Path_35" data-name="Path 35" class="cls-2" d="M158.082,91.168H156.7v-.854h1.382V88.2H159.1v2.114h1.911v.854H159.1v3.9c0,1.789,1.138,2.033,1.748,2.033a1.678,1.678,0,0,0,.366-.041v.894a2.031,2.031,0,0,1-.447.041c-.895,0-2.684-.285-2.684-2.846Z" transform="translate(-141.697 -87.102)"></path>
      <path id="Path_36" data-name="Path 36" class="cls-2" d="M174.24,92.9c2.114,0,3.212,1.626,3.212,3.537,0,.163-.041.488-.041.488h-5.9a2.9,2.9,0,0,0,2.968,3.049,3.632,3.632,0,0,0,2.318-.894l.488.773a4.335,4.335,0,0,1-2.805,1.057,3.844,3.844,0,0,1-3.985-3.985A3.689,3.689,0,0,1,174.24,92.9Zm2.114,3.253a2.163,2.163,0,0,0-2.155-2.4,2.66,2.66,0,0,0-2.643,2.4Z" transform="translate(-149.885 -89.891)"></path>
      <path id="Path_37" data-name="Path 37" class="cls-2" d="M190.963,100.071h1.179V94.46c0-.244-.122-.325-.325-.325H190.8v-.854h1.423c.651,0,.935.244.935.854v.529a3.838,3.838,0,0,1-.041.569h.041a2.624,2.624,0,0,1,2.4-2.033,2.377,2.377,0,0,1,.407.041v1.016a2.377,2.377,0,0,0-.407-.041c-1.708,0-2.4,1.911-2.4,3.456v2.4h1.179v.854h-3.415v-.854Z" transform="translate(-161.932 -90.069)"></path>
      <path id="Path_38" data-name="Path 38" class="cls-2" d="M205.841,99.893h1.3V94.282c0-.244-.122-.325-.325-.325H205.8V93.1h1.464c.651,0,.935.285.935.854V94.4a3.6,3.6,0,0,1-.041.529h.041a3.352,3.352,0,0,1,3.09-2.033c1.87,0,2.521,1.057,2.521,2.968v3.985h1.3v.854h-2.318V96.112c0-1.179-.2-2.277-1.667-2.277a3.044,3.044,0,0,0-2.887,3.171v2.805h1.3v.854h-3.619v-.773Z" transform="translate(-170.833 -89.891)"></path>
      <path id="Path_39" data-name="Path 39" class="cls-2" d="M235.295,96.131h.488v-.325c0-1.423-.773-1.911-1.83-1.911a3.751,3.751,0,0,0-2.2.732l-.488-.773A4.536,4.536,0,0,1,234.034,93c1.87,0,2.805.976,2.805,2.887v3.781c0,.244.122.325.325.325h.854v.854h-1.26c-.651,0-.894-.285-.894-.854v-.122a4.1,4.1,0,0,1,.041-.61h-.041a2.828,2.828,0,0,1-2.6,1.748,2.338,2.338,0,0,1-2.562-2.277C230.7,96.212,234.034,96.131,235.295,96.131Zm-1.87,3.985c1.545,0,2.4-1.545,2.4-2.887v-.366h-.447c-.61,0-3.578-.041-3.578,1.708A1.494,1.494,0,0,0,233.424,100.115Z" transform="translate(-185.609 -89.951)"></path>
      <path id="Path_40" data-name="Path 40" class="cls-2" d="M251.482,91.168H250.1v-.854h1.382V88.2H252.5v2.114h1.911v.854H252.5v3.9c0,1.789,1.138,2.033,1.748,2.033a1.678,1.678,0,0,0,.366-.041v.894a2.031,2.031,0,0,1-.447.041c-.894,0-2.683-.285-2.683-2.846V91.168Z" transform="translate(-197.121 -87.102)"></path>
      <path id="Path_41" data-name="Path 41" class="cls-2" d="M263.681,95.74h1.3V89.8H263.6v-.854H266v6.79h1.3v.854h-3.619V95.74Zm1.22-9.84h1.179v1.3H264.9Z" transform="translate(-205.132 -85.737)"></path>
      <path id="Path_42" data-name="Path 42" class="cls-2" d="M279.325,92.9a3.985,3.985,0,1,1,0,7.969,4.008,4.008,0,0,1-4.025-4.025A3.965,3.965,0,0,1,279.325,92.9Zm0,7.075a3.013,3.013,0,0,0,2.968-3.09,2.969,2.969,0,1,0-5.936,0A3.013,3.013,0,0,0,279.325,99.975Z" transform="translate(-212.075 -89.891)"></path>
      <path id="Path_43" data-name="Path 43" class="cls-2" d="M298.341,99.893h1.3V94.282c0-.244-.122-.325-.325-.325H298.3V93.1h1.464c.651,0,.935.285.935.854V94.4a1.871,1.871,0,0,1-.081.529h.041a3.352,3.352,0,0,1,3.09-2.033c1.87,0,2.521,1.057,2.521,2.968v3.985h1.3v.854h-2.318V96.112c0-1.179-.2-2.277-1.667-2.277a3.044,3.044,0,0,0-2.887,3.171v2.805H302v.854h-3.619v-.773Z" transform="translate(-225.723 -89.891)"></path>
      <path id="Path_44" data-name="Path 44" class="cls-2" d="M327.794,96.131h.488v-.325c0-1.423-.773-1.911-1.83-1.911a3.751,3.751,0,0,0-2.2.732l-.488-.773A4.536,4.536,0,0,1,326.534,93c1.87,0,2.805.976,2.805,2.887v3.781c0,.244.122.325.325.325h.854v.854h-1.26c-.651,0-.895-.285-.895-.854v-.122a4.1,4.1,0,0,1,.041-.61h-.041a2.828,2.828,0,0,1-2.6,1.748,2.338,2.338,0,0,1-2.562-2.277C323.2,96.212,326.534,96.131,327.794,96.131Zm-1.87,3.985c1.545,0,2.4-1.545,2.4-2.887v-.366h-.447c-.61,0-3.578-.041-3.578,1.708A1.494,1.494,0,0,0,325.924,100.115Z" transform="translate(-240.499 -89.951)"></path>
      <path id="Path_45" data-name="Path 45" class="cls-2" d="M343.382,86.754H342V85.9h2.4v8.66c0,.61.163,1.138.854,1.138a1.443,1.443,0,0,0,.407-.041v.895a4.848,4.848,0,0,1-.61.041c-1.016,0-1.748-.488-1.748-1.952V86.754Z" transform="translate(-251.655 -85.737)"></path>
      <path id="Path_46" data-name="Path 46" class="cls-2" d="M369.03,85.5c1.83,0,4.025.773,4.025,2.074v1.179h-1.016V87.94c0-1.016-1.626-1.5-2.968-1.5a4.258,4.258,0,0,0-4.432,4.554,4.335,4.335,0,0,0,4.432,4.594c1.057,0,3.253-.325,3.253-1.545V92.371h-2.236v-.895H373.3v2.805c0,1.667-2.684,2.277-4.269,2.277a5.53,5.53,0,1,1,0-11.059Z" transform="translate(-264.413 -85.5)"></path>
      <path id="Path_47" data-name="Path 47" class="cls-2" d="M391.663,100.071h1.179V94.46c0-.244-.122-.325-.325-.325H391.5v-.854h1.423c.651,0,.935.244.935.854v.529a3.837,3.837,0,0,1-.041.569h.041a2.624,2.624,0,0,1,2.4-2.033,2.377,2.377,0,0,1,.407.041v1.016a2.377,2.377,0,0,0-.407-.041c-1.708,0-2.4,1.911-2.4,3.456v2.4h1.179v.854h-3.415v-.854Z" transform="translate(-281.029 -90.069)"></path>
      <path id="Path_48" data-name="Path 48" class="cls-2" d="M410.225,92.9a3.985,3.985,0,1,1,0,7.969,4.008,4.008,0,0,1-4.025-4.025A3.965,3.965,0,0,1,410.225,92.9Zm0,7.075a3.013,3.013,0,0,0,2.968-3.09,2.969,2.969,0,1,0-5.936,0A3.013,3.013,0,0,0,410.225,99.975Z" transform="translate(-289.752 -89.891)"></path>
      <path id="Path_49" data-name="Path 49" class="cls-2" d="M429.682,94.254H428.3V93.4h2.4v4.594c0,1.179.163,2.277,1.667,2.277a3.014,3.014,0,0,0,2.806-3.212V94.295h-1.382v-.854h2.4v6.465c0,.244.122.325.325.325h.854v.854h-1.3c-.651,0-.895-.285-.895-.854v-.895h-.041a3.221,3.221,0,0,1-3.009,1.952c-1.748,0-2.521-.976-2.521-2.968V94.254Z" transform="translate(-302.866 -90.188)"></path>
      <path id="Path_50" data-name="Path 50" class="cls-2" d="M454.242,102.9v-8.62c0-.244-.122-.325-.325-.325H452.9V93.1h1.423c.651,0,.895.285.895.813v.041a3.606,3.606,0,0,1-.041.529h.041A2.783,2.783,0,0,1,457.9,92.9c2.033,0,3.334,1.626,3.334,3.985,0,2.4-1.423,3.985-3.415,3.985a2.809,2.809,0,0,1-2.521-1.5h-.041a5.116,5.116,0,0,1,.041.651v2.846h1.3v.854h-3.659v-.854h1.3Zm3.415-2.927c1.342,0,2.48-1.138,2.48-3.049,0-1.87-1.016-3.049-2.44-3.049-1.26,0-2.44.895-2.44,3.09C455.258,98.47,456.112,99.975,457.657,99.975Z" transform="translate(-317.464 -89.891)"></path>
    </g>
  </g>
</svg>
