<?xml version="1.0" encoding="UTF-8"?>
<svg xmlns="http://www.w3.org/2000/svg" viewBox="0 0 80.396 80.396">
  <defs>
    <style>
      .cls-1 {
        fill: #d9d8d6;
      }
    </style>
  </defs>
  <path id="Path_88" data-name="Path 88" class="cls-1" d="M40.2,80.4A40.2,40.2,0,1,1,80.4,40.2,40.191,40.191,0,0,1,40.2,80.4M40.2,1.9A38.3,38.3,0,1,0,78.516,40.2,38.286,38.286,0,0,0,40.2,1.9Zm34.06,49.75c-.022.043-.086.086-.194.043-.086-.043-.13-.086-.13-.151a31.082,31.082,0,0,0,1.34-8.58c-.022-4.906-2.01-7.91-4.56-7.91a2.617,2.617,0,0,0-2.68,2.788c0,3,3.674,3.242,3.674,9.812a26.093,26.093,0,0,1-1.448,8.018C66.132,69.59,52.992,76.052,40.2,76.052A31.846,31.846,0,0,1,28.852,74.28a.181.181,0,0,1-.043-.216.162.162,0,0,1,.173-.108A27.8,27.8,0,0,0,37.54,75.3c4.906,0,7.8-2.01,7.8-4.452a2.754,2.754,0,0,0-2.788-2.788c-3,0-3.242,3.782-9.682,3.782a26.756,26.756,0,0,1-8.126-1.448C10.914,66.132,4.322,53.122,4.344,40.2A37.238,37.238,0,0,1,6.138,28.852c.022-.043.108-.065.195-.043.108.043.13.13.108.151A28.7,28.7,0,0,0,5.1,37.518c0,4.906,2.01,7.8,4.56,7.8a2.638,2.638,0,0,0,2.68-2.68c0-3-3.674-3.35-3.674-9.812A26.756,26.756,0,0,1,10.114,24.7C14.372,10.914,27.4,4.43,40.2,4.344a33.089,33.089,0,0,1,11.346,1.9c.043.022.065.108.043.195a.141.141,0,0,1-.151.108,25,25,0,0,0-8.58-1.426c-4.8,0-7.8,2.01-7.8,4.56a2.649,2.649,0,0,0,2.788,2.658c3,0,3.22-3.674,9.682-3.674a26.756,26.756,0,0,1,8.126,1.448C69.568,14.35,75.9,27.49,76.03,40.176A34.154,34.154,0,0,1,74.258,51.652ZM55.11,42.1a6.389,6.389,0,0,0-6.678,6.116c0,2.788,1.664,5.014,3.89,5.014a1.432,1.432,0,0,0,1.556-1.448c0-1.448-1.923-1.794-1.772-3.977a2.706,2.706,0,0,1,2.766-2.377c2.68,0,3.912,2.593,3.912,5.252a6.825,6.825,0,0,1-6.7,6.981c-4.668,0-7.694-4.452-7.694-9.25,0-7.132,4.668-9.92,7.132-10.59.022,0,6.4,1.145,6.2-1.686-.086-1.232-1.923-1.707-3.263-1.772a8.716,8.716,0,0,0-2.961.475,3.587,3.587,0,0,1-1.642-2.053c4.56-3.458,7.8-6.786,7.8-10.568a3.645,3.645,0,0,0-3.89-3.782c-4.56,0-8.018,5.792-8.018,11.022a10.012,10.012,0,0,0,.216,2.572,105.372,105.372,0,0,1-8.947,5.77,20.2,20.2,0,0,1,.432-3.371c1.34-1.448,3.177-3.631,3.177-5.295a1.322,1.322,0,0,0-1.34-1.448c-2.226,0-3.89,3.35-4.344,5.684-.994,1.232-3,2.788-4.668,2.788a2.055,2.055,0,0,1-1.9-1.664c4.236-1.448,9.466-7.24,9.466-12.47,0-1.1-.454-3.566-3.782-3.566-5.014,0-9.25,7.456-9.25,13.248-1.794,0-2.442-1.9-2.442-3.328a22.321,22.321,0,0,1,.562-3.35.886.886,0,0,0-.886-.994c-1.664,0-2.68,2.226-2.68,4.776a5.819,5.819,0,0,0,5.576,6.008,5.1,5.1,0,0,0,4.668,4.128,6.873,6.873,0,0,0,4.452-1.556c-.108.778-.216,1.448-.346,2.118-4.884,2.593-8.429,4.366-11.67,7.262a11.575,11.575,0,0,0-4,7.91,6.126,6.126,0,0,0,6.462,6.462c5.122,0,9.012-4.128,10.914-9.79a44.255,44.255,0,0,0,1.47-10.136,106.465,106.465,0,0,0,10.222-6.462,4.319,4.319,0,0,0,1.124,1.34,13.9,13.9,0,0,0-7.91,12.816c0,5.792,3.89,12.254,11.584,12.254a10.6,10.6,0,0,0,10.7-10.244C62.588,46.336,60.016,42.1,55.11,42.1Zm-30.6,15.582a2.53,2.53,0,0,1-2.788-2.766c0-4.8,6.635-9.358,11.649-11.8C32.483,49.794,30.213,57.422,24.508,57.682ZM28.182,31.4c0-3.674,3.631-10.655,5.835-9.92C36.632,22.347,31.856,29.392,28.182,31.4ZM49.21,29.738c0-4.56,3.09-9.012,4.776-8.169C55.91,22.519,52.56,26.82,49.21,29.738Z"></path>
</svg>
