<?xml version="1.0" encoding="UTF-8"?>
<svg xmlns="http://www.w3.org/2000/svg" id="Group_87" data-name="Group 87" viewBox="0 0 119.13 48.186">
  <defs>
    <style>
      .cls-1 {
        fill: #d9d8d6;
      }
    </style>
  </defs>
  <path id="Path_51" data-name="Path 51" class="cls-1" d="M97.934,3.433H78.1L79.371,0H97.934Z" transform="translate(21.196)"></path>
  <path id="Path_52" data-name="Path 52" class="cls-1" d="M52.1,0H70.535l1.144,3.433H52.1Z" transform="translate(14.14)"></path>
  <path id="Path_53" data-name="Path 53" class="cls-1" d="M46.055,0a12.771,12.771,0,0,1,7.883,3.433H20.5V0Z" transform="translate(5.564)"></path>
  <g id="Group_74" data-name="Group 74">
    <rect id="Rectangle_32" data-name="Rectangle 32" class="cls-1" width="23.139" height="3.433"></rect>
    <path id="Path_54" data-name="Path 54" class="cls-1" d="M9.1,1.3" transform="translate(2.47 0.353)"></path>
  </g>
  <path id="Path_55" data-name="Path 55" class="cls-1" d="M98.422,8.433H76.3L77.444,5H98.3V8.433Z" transform="translate(20.707 1.357)"></path>
  <path id="Path_56" data-name="Path 56" class="cls-1" d="M74.1,8.406h-22V5.1H72.824Z" transform="translate(14.14 1.384)"></path>
  <path id="Path_57" data-name="Path 57" class="cls-1" d="M56.58,5.1C56.962,6.244,57.6,7.134,57.6,8.533h-37V5.1Z" transform="translate(5.591 1.384)"></path>
  <g id="Group_75" data-name="Group 75" transform="translate(0 6.484)">
    <rect id="Rectangle_33" data-name="Rectangle 33" class="cls-1" width="23.139" height="3.433"></rect>
    <path id="Path_58" data-name="Path 58" class="cls-1" d="M9.1,6.4" transform="translate(2.47 -4.747)"></path>
  </g>
  <path id="Path_59" data-name="Path 59" class="cls-1" d="M74.6,13.533,75.744,10.1H92.4v3.433Z" transform="translate(20.246 2.741)"></path>
  <path id="Path_60" data-name="Path 60" class="cls-1" d="M73.7,10.1l1.271,3.433H57.3V10.1Z" transform="translate(15.551 2.741)"></path>
  <path id="Path_61" data-name="Path 61" class="cls-1" d="M52.18,10.1a10.21,10.21,0,0,1-.509,3.433H41.5V10.1Z" transform="translate(11.263 2.741)"></path>
  <g id="Group_76" data-name="Group 76" transform="translate(6.484 12.841)">
    <rect id="Rectangle_34" data-name="Rectangle 34" class="cls-1" width="9.917" height="3.433"></rect>
    <path id="Path_62" data-name="Path 62" class="cls-1" d="M9,11.5" transform="translate(-4.042 -9.72)"></path>
  </g>
  <g id="Group_77" data-name="Group 77" transform="translate(32.929 12.841)">
    <rect id="Rectangle_35" data-name="Rectangle 35" class="cls-1" width="9.917" height="3.433"></rect>
    <path id="Path_63" data-name="Path 63" class="cls-1" d="M29.8,11.5" transform="translate(-24.842 -9.72)"></path>
  </g>
  <path id="Path_64" data-name="Path 64" class="cls-1" d="M67.09,15.89v2.543H57.3V15H75.99l1.144,3.178L78.278,15H97.095v3.433H87.3V15.89l-.89,2.543H67.98Z" transform="translate(15.551 4.071)"></path>
  <path id="Path_65" data-name="Path 65" class="cls-1" d="M25.9,15.1H54.506a14.408,14.408,0,0,1-2.8,3.433H26.027A32.145,32.145,0,0,1,25.9,15.1Z" transform="translate(7.029 4.098)"></path>
  <g id="Group_78" data-name="Group 78" transform="translate(6.484 19.198)">
    <rect id="Rectangle_36" data-name="Rectangle 36" class="cls-1" width="9.917" height="3.433"></rect>
    <path id="Path_66" data-name="Path 66" class="cls-1" d="M9,16.4" transform="translate(-4.042 -14.747)"></path>
  </g>
  <g id="Group_79" data-name="Group 79" transform="translate(102.856 25.555)">
    <rect id="Rectangle_37" data-name="Rectangle 37" class="cls-1" width="9.79" height="3.433"></rect>
    <path id="Path_67" data-name="Path 67" class="cls-1" d="M84.7,21.5" transform="translate(-79.869 -19.72)"></path>
  </g>
  <path id="Path_68" data-name="Path 68" class="cls-1" d="M67.09,20.1H57.3v3.433h9.79Z" transform="translate(15.551 5.455)"></path>
  <path id="Path_69" data-name="Path 69" class="cls-1" d="M82.874,20.1,81.73,23.533H67.871L66.6,20.1Z" transform="translate(18.075 5.455)"></path>
  <path id="Path_70" data-name="Path 70" class="cls-1" d="M25.9,20.1H51.582a15.571,15.571,0,0,1,3.051,3.433H25.9Z" transform="translate(7.029 5.455)"></path>
  <path id="Path_71" data-name="Path 71" class="cls-1" d="M15.017,23.533V20.1H5.1v3.433Z" transform="translate(1.384 5.455)"></path>
  <g id="Group_80" data-name="Group 80" transform="translate(102.856 32.039)">
    <rect id="Rectangle_38" data-name="Rectangle 38" class="cls-1" width="9.79" height="3.433"></rect>
    <path id="Path_72" data-name="Path 72" class="cls-1" d="M84.7,26.5" transform="translate(-79.869 -24.847)"></path>
  </g>
  <g id="Group_81" data-name="Group 81" transform="translate(72.851 32.039)">
    <rect id="Rectangle_39" data-name="Rectangle 39" class="cls-1" width="9.79" height="3.433"></rect>
    <path id="Path_73" data-name="Path 73" class="cls-1" d="M61.1,26.5" transform="translate(-56.269 -24.847)"></path>
  </g>
  <path id="Path_74" data-name="Path 74" class="cls-1" d="M78.853,28.633S80,25.2,80.124,25.2H68.3l1.271,3.433Z" transform="translate(18.536 6.839)"></path>
  <path id="Path_75" data-name="Path 75" class="cls-1" d="M25.9,28.533V25.1H35.944v3.433Z" transform="translate(7.029 6.812)"></path>
  <path id="Path_76" data-name="Path 76" class="cls-1" d="M51.744,25.2a10.276,10.276,0,0,1,.636,3.433H41.7V25.2Z" transform="translate(11.317 6.839)"></path>
  <g id="Group_82" data-name="Group 82" transform="translate(6.484 32.039)">
    <rect id="Rectangle_40" data-name="Rectangle 40" class="cls-1" width="9.917" height="3.433"></rect>
    <path id="Path_77" data-name="Path 77" class="cls-1" d="M9,26.5" transform="translate(-4.042 -24.847)"></path>
  </g>
  <g id="Group_83" data-name="Group 83" transform="translate(102.856 38.269)">
    <rect id="Rectangle_41" data-name="Rectangle 41" class="cls-1" width="16.274" height="3.433"></rect>
    <path id="Path_78" data-name="Path 78" class="cls-1" d="M87.3,31.4" transform="translate(-79.163 -29.747)"></path>
  </g>
  <g id="Group_84" data-name="Group 84" transform="translate(66.24 38.269)">
    <rect id="Rectangle_42" data-name="Rectangle 42" class="cls-1" width="16.274" height="3.433"></rect>
    <path id="Path_79" data-name="Path 79" class="cls-1" d="M58.6,31.4" transform="translate(-50.336 -29.747)"></path>
  </g>
  <path id="Path_80" data-name="Path 80" class="cls-1" d="M76.23,33.533H71.271L70,30.1h7.374Z" transform="translate(18.998 8.169)"></path>
  <path id="Path_81" data-name="Path 81" class="cls-1" d="M0,30.1v3.433H23.139V30.1Z" transform="translate(0 8.169)"></path>
  <path id="Path_82" data-name="Path 82" class="cls-1" d="M57.725,30.1a8.007,8.007,0,0,1-1.271,3.433H20.6V30.1Z" transform="translate(5.591 8.169)"></path>
  <path id="Path_83" data-name="Path 83" class="cls-1" d="M73.453,38.506h-.381L71.8,35.2h2.924Z" transform="translate(19.486 9.553)"></path>
  <g id="Group_85" data-name="Group 85" transform="translate(102.856 44.753)">
    <rect id="Rectangle_43" data-name="Rectangle 43" class="cls-1" width="16.274" height="3.433"></rect>
    <path id="Path_84" data-name="Path 84" class="cls-1" d="M87.3,36.5" transform="translate(-79.163 -34.847)"></path>
  </g>
  <path id="Path_85" data-name="Path 85" class="cls-1" d="M20.6,38.533V35.1H54.165a13.151,13.151,0,0,1-8.645,3.433H20.6" transform="translate(5.591 9.526)"></path>
  <g id="Group_86" data-name="Group 86" transform="translate(66.24 44.753)">
    <rect id="Rectangle_44" data-name="Rectangle 44" class="cls-1" width="16.274" height="3.433"></rect>
    <path id="Path_86" data-name="Path 86" class="cls-1" d="M58.6,36.5" transform="translate(-50.336 -34.847)"></path>
  </g>
  <path id="Path_87" data-name="Path 87" class="cls-1" d="M23.139,35.2v3.433H0V35.2Z" transform="translate(0 9.553)"></path>
</svg>
