<?xml version="1.0" encoding="UTF-8"?>
<svg xmlns="http://www.w3.org/2000/svg" id="Group_91" data-name="Group 91" viewBox="0 0 220.591 32.219">
  <defs>
    <style>
      .cls-1 {
        fill: #d9d8d6;
      }
    </style>
  </defs>
  <g id="Group_88" data-name="Group 88">
    <path id="Path_89" data-name="Path 89" class="cls-1" d="M19.141,11.183l1.335-6.1A25.047,25.047,0,0,0,11.744,3.1C3.393,3.1.458,8.133.153,12.022c-.381,4.957,2.822,7.511,6.215,8.617,5.757,1.868,8.5,2.4,8.2,4.423-.229,1.487-1.144,2.9-4.652,2.9a20.016,20.016,0,0,1-8.579-2.173L0,31.925A30.612,30.612,0,0,0,9.99,34.1c7.4,0,11.477-4.461,11.477-9.761,0-4.69-3.66-6.978-6.863-7.969-5.948-1.83-7.816-2.173-7.7-4.423.076-1.792,2.021-2.593,5.033-2.478A25.321,25.321,0,0,1,19.141,11.183Z" transform="translate(0 -1.918)"></path>
    <path id="Path_90" data-name="Path 90" class="cls-1" d="M438.691,30.591l1.106-5.414a36.285,36.285,0,0,0-7.054-.877c-6.482,0-8.846,3.47-9.075,6.482-.267,3.851,2.25,5.948,4.919,6.825,4.461,1.449,6.1,1.945,5.872,3.05-.152.686-.763,1.3-3.47,1.3a17.444,17.444,0,0,1-6.253-1.144l-.915,5.147a29.666,29.666,0,0,0,7.74,1.3c5.948,0,9.265-3.05,9.265-7.168,0-3.622-2.1-5.414-5.491-6.406-4-1.144-5.567-1.64-5.3-2.707.267-1.144,1.335-1.563,3.851-1.411A16.537,16.537,0,0,1,438.691,30.591Z" transform="translate(-262.117 -15.035)"></path>
    <path id="Path_91" data-name="Path 91" class="cls-1" d="M82.848,35.739c0,6.329-4.423,11.439-11.324,11.439S60.2,42.068,60.2,35.739,64.623,24.3,71.524,24.3,82.848,29.409,82.848,35.739ZM71.486,30.172c-3.05,0-5.033,2.478-5.033,5.567,0,3.05,1.945,5.567,5.033,5.567,3.05,0,5.033-2.478,5.033-5.567S74.575,30.172,71.486,30.172Z" transform="translate(-37.247 -15.035)"></path>
    <path id="Path_92" data-name="Path 92" class="cls-1" d="M130.215,40.326V27.4H124V41.164c0,5.262,3.66,7.969,9.99,7.969a33.935,33.935,0,0,0,9.761-1.563V27.4h-6.215V42.842a13.4,13.4,0,0,1-4.27.343C131.511,43.071,130.215,42.308,130.215,40.326Z" transform="translate(-76.72 -16.953)"></path>
    <path id="Path_93" data-name="Path 93" class="cls-1" d="M236.239,9.3a19.578,19.578,0,0,0-5.224.991V0H224.8V32.181h6.215V16.014a12.262,12.262,0,0,1,4.118-.839c2.173.076,3.05.8,3.05,2.783V32.181H244.4V17.31C244.436,12.011,241.958,9.3,236.239,9.3Z" transform="translate(-139.087)"></path>
    <path id="Path_94" data-name="Path 94" class="cls-1" d="M195.565,33c-4.309.953-5.147,0-5.147-2.211V22.324h5.109V17.253H190.38V11h-6.215v6.253H181v5.071h3.165v8.465c0,6.329,2.4,10.028,12.011,7.283Z" transform="translate(-111.987 -6.806)"></path>
    <path id="Path_95" data-name="Path 95" class="cls-1" d="M484.227,33c-4.309.953-5.147,0-5.147-2.211V22.324h5.147V17.253H479.08V11h-6.215v6.253H469.7v5.071h3.165v8.465c0,6.329,2.4,10.028,12.011,7.283Z" transform="translate(-290.61 -6.806)"></path>
    <path id="Path_96" data-name="Path 96" class="cls-1" d="M305.048,27.3l-3.927,12.087L297.156,27.3h-5.491l-3.927,12.087L283.811,27.3H277.1l7.664,21.733h5.719l3.927-11.782,3.965,11.782H304.1L311.759,27.3Z" transform="translate(-171.445 -16.891)"></path>
    <path id="Path_97" data-name="Path 97" class="cls-1" d="M385.389,45.156a20.31,20.31,0,0,1-8.465,2.021c-8.236,0-11.324-5.109-11.324-11.439,0-6.482,4.232-11.439,11.324-11.439,6.6,0,9.875,5.185,9.608,11.439-.038.724-.114,1.449-.191,2.173H372.273c.229,1.334,1.22,3.813,5.224,3.813a14.792,14.792,0,0,0,6.9-1.6Zm-5.262-11.439c-.267-2.516-1.487-4.385-3.737-4.385-2.059,0-3.546,1.868-4,4.385Z" transform="translate(-226.202 -15.035)"></path>
  </g>
  <g id="Group_90" data-name="Group 90" transform="translate(197.496 9.761)">
    <g id="Group_89" data-name="Group 89">
      <path id="Path_98" data-name="Path 98" class="cls-1" d="M560.752,33.683a7.674,7.674,0,0,0-.686-4.88,6.182,6.182,0,0,0-5.757-3.2A9.288,9.288,0,0,0,550,26.744,118.1,118.1,0,0,1,560.752,33.683Z" transform="translate(-537.789 -25.6)"></path>
      <path id="Path_99" data-name="Path 99" class="cls-1" d="M518.1,39.4c-.915,4.995,3.241,11.134,11.4,16.548a47.034,47.034,0,0,0,4.614-3.508C532.587,51.144,524.046,43.975,518.1,39.4Z" transform="translate(-517.973 -34.138)"></path>
      <path id="Path_100" data-name="Path 100" class="cls-1" d="M535.544,42.8a19.715,19.715,0,0,0,5.224-7.588,81.88,81.88,0,0,0-11.019-8.045,8.533,8.533,0,0,0-4.957-1.563,6.148,6.148,0,0,0-5.757,3.2,6.8,6.8,0,0,0-.534,1.373C524.791,34.408,534.018,41.614,535.544,42.8Z" transform="translate(-518.299 -25.6)"></path>
    </g>
  </g>
</svg>
