<?xml version="1.0" encoding="UTF-8"?>
<svg xmlns="http://www.w3.org/2000/svg" id="Group_94" data-name="Group 94" viewBox="0 0 70.731 86.724">
  <defs>
    <style>
      .cls-1 {
        fill: #d9d8d6;
      }
    </style>
  </defs>
  <path id="Path_106" data-name="Path 106" class="cls-1" d="M35.366,84.352S15.617,75.735,9.515,70.889C3.053,65.505,0,58.144,0,49.7V7.7C15.617-.741,35.366-.023,35.366-.023S55.114-.741,70.731,7.7V49.527c0,8.436-3.053,15.8-9.515,21.185-6.1,5.023-25.85,13.64-25.85,13.64M2.872,49.7c0,7.9,2.872,14.361,8.436,18.85,5.026,4.128,19.925,10.771,24.057,12.568,4.128-1.8,19.207-8.617,24.057-12.568,5.564-4.489,8.436-11.132,8.436-18.85V8.417C47.035,6.44,22.26,7.519,2.872,25.47V49.7Z" transform="translate(0 0.038)"></path>
  <path id="Path_107" data-name="Path 107" class="cls-1" d="M220.166,793.09c2.692,1.617,3.771,2.692,3.951,4.669,0,2.154-1.436,3.41-3.771,3.41a9.716,9.716,0,0,1-5.925-2.515V804.4a14.388,14.388,0,0,0,6.823,1.974c6.105,0,8.978-4.308,8.978-8.259.18-3.59-.9-6.463-6.105-9.515-2.335-1.436-4.128-2.335-4.128-4.489s1.974-3.053,3.59-3.053a8.464,8.464,0,0,1,5.564,2.515v-5.384a9.9,9.9,0,0,0-6.823-1.974c-4.128.18-8.436,3.053-8.436,8.079.18,3.41,1.256,5.925,6.282,8.8m-21.181,12.925a9.173,9.173,0,0,0,2.872.361c7,0,10.951-6.282,10.951-15.26,0-9.155-4.128-14.722-11.489-14.722a15.5,15.5,0,0,0-8.436,2.154v40.572h6.105V806.015Zm0-24.414a7.538,7.538,0,0,1,2.154-.538c3.59,0,5.026,2.872,5.026,9.872,0,6.823-1.8,10.053-5.387,10.053a4.769,4.769,0,0,1-1.974-.361V781.6Zm-18.85,24.771a16.381,16.381,0,0,0,9.335-2.515V776.752h-6.282v23.516a4.562,4.562,0,0,1-2.872.718c-2.872,0-3.233-2.692-3.233-4.308V776.752H170.8V796.32c0,6.643,3.23,10.053,9.335,10.053m41.828,24.237v4.128h.718v-1.617h.18l1.079,1.617h.9s-1.079-1.617-1.256-1.8a1.14,1.14,0,0,0,.9-1.079,1.275,1.275,0,0,0-1.436-1.256h-1.082Zm1.075.538c.538,0,.718.361.718.538,0,.361-.18.718-.9.718h-.18v-1.256Z" transform="translate(-164.875 -749.27)"></path>
  <path id="Path_108" data-name="Path 108" class="cls-1" d="M1589.7,2306.81a2.692,2.692,0,1,1-2.692-2.691,2.642,2.642,0,0,1,2.692,2.691m-2.692-3.41a3.41,3.41,0,1,0,3.41,3.41,3.527,3.527,0,0,0-3.41-3.41" transform="translate(-1528.666 -2223.496)"></path>
</svg>
