<svg id="Layer_1" data-name="Layer 1" xmlns="http://www.w3.org/2000/svg" viewBox="0 0 100 100"><defs><style>.cls-1{fill:#3fa9f5;}</style></defs><title>expert_team</title><path class="cls-1" d="M86.13,13.3A34.43,34.43,0,0,0,59.76,1.56H49.66A33.92,33.92,0,0,0,34.75,4.81,33.46,33.46,0,0,0,15.63,35.13,13,13,0,0,1,10.7,45.37L7.3,48.1l.76,1.18A91,91,0,0,1,19.59,75.72l.49,1.89a11,11,0,0,0,5.73,7.25,10.79,10.79,0,0,0,9.8-.22l23-13L57,69,34.1,81.9a7.63,7.63,0,0,1-6.93.15,7.91,7.91,0,0,1-4.07-5.22l-.48-1.89c-.13-.5-.28-1-.42-1.5h4.36V70.31H21.28a93.45,93.45,0,0,0-9.84-21.52l1.21-1a16.16,16.16,0,0,0,6.1-12.69A30.34,30.34,0,0,1,36.11,7.63,30.85,30.85,0,0,1,49.66,4.69h10.1c.4,0,.79,0,1.18,0V9.38h3.12V5A30.77,30.77,0,0,1,83.75,15.33a29.28,29.28,0,0,1,6.49,24,29.62,29.62,0,0,1-4,10.9C77.86,63.91,73.44,78.82,73.44,93.35v2H64.06V65.63H60.94V95.31H45.31V82.81H42.19V98.44H76.56V93.35c0-14,4.27-28.29,12.34-41.46a32.68,32.68,0,0,0,4.42-12A32.37,32.37,0,0,0,86.13,13.3Z"/><rect class="cls-1" x="23.44" y="40.63" width="9.38" height="3.13"/><path class="cls-1" d="M71.88,34.38a9.38,9.38,0,1,0-9.38,9.37A9.39,9.39,0,0,0,71.88,34.38ZM62.5,40.63a6.25,6.25,0,1,1,6.25-6.25A6.26,6.26,0,0,1,62.5,40.63Z"/><path class="cls-1" d="M55.2,51.63l.26.11,1.13,4.51H68.41l1.13-4.51.26-.11,4,2.39,8.36-8.35-2.4-4c0-.09.08-.18.11-.27l4.52-1.13V28.47l-4.52-1.13c-.14-.35-.29-.7-.46-1l-2.82,1.34a16.08,16.08,0,0,1,.64,1.54l.28.79,3.75.94v6.93l-3.75.94-.28.79a16.08,16.08,0,0,1-.64,1.54l-.36.75,2,3.32-4.9,4.91L70,48.1l-.76.36c-.5.24-1,.45-1.53.64l-.8.28L66,53.13H59l-.93-3.75-.8-.28c-.52-.19-1-.4-1.53-.64L55,48.1l-3.31,2-5.77-5.77-2.21,2.21L51.21,54Z"/><path class="cls-1" d="M40.63,28.47V40.28l4.51,1.13c.14.35.29.7.46,1l2.82-1.34a16.08,16.08,0,0,1-.64-1.54l-.28-.79-3.75-.94V30.91L47.5,30l.28-.79a16.08,16.08,0,0,1,.64-1.54l.36-.76-2-3.31,4.9-4.91,3.32,2,.76-.36a15.9,15.9,0,0,1,1.53-.64l.79-.27L59,15.63H66l.94,3.75.79.27a16.08,16.08,0,0,1,1.54.64l.75.36,3.32-2,5.77,5.77,2.21-2.21-7.49-7.49-4,2.39L69.53,17,68.41,12.5H56.59L55.46,17l-.26.11-4-2.39-8.36,8.35,2.4,4c0,.09-.08.18-.11.27Z"/><rect class="cls-1" x="60.94" y="18.75" width="3.13" height="3.13"/><rect class="cls-1" x="50.99" y="22.87" width="3.12" height="3.12" transform="translate(-1.88 44.33) rotate(-45.01)"/><rect class="cls-1" x="46.88" y="32.81" width="3.13" height="3.13"/><rect class="cls-1" x="50.99" y="42.75" width="3.12" height="3.12" transform="translate(-15.94 50.13) rotate(-44.99)"/><rect class="cls-1" x="60.94" y="46.88" width="3.13" height="3.13"/><rect class="cls-1" x="70.88" y="42.76" width="3.12" height="3.12" transform="translate(-10.12 64.22) rotate(-45.01)"/><rect class="cls-1" x="75" y="32.81" width="3.13" height="3.13"/><rect class="cls-1" x="70.88" y="22.87" width="3.12" height="3.12" transform="translate(3.94 58.37) rotate(-44.99)"/><rect class="cls-1" x="60.94" y="59.38" width="3.13" height="3.13"/></svg>