<svg id="Layer_1" data-name="Layer 1" xmlns="http://www.w3.org/2000/svg" viewBox="0 0 100 100"><defs><style>.cls-1{fill:#ed7343;}</style></defs><title>integrated_tech_icon</title><path class="cls-1" d="M98.44,60.6V39.4l-10-2.49a42.06,42.06,0,0,0-2.42-5.63l-2.77,1.44a36.72,36.72,0,0,1,2.48,6l.26.83,9.29,2.33v16.3L86,60.48l-.26.83a37.48,37.48,0,0,1-2.48,6l-.4.77,4.93,8.22L76.28,87.81l-8.22-4.94-.78.41a37.64,37.64,0,0,1-6,2.48l-.83.26-2.33,9.29H41.85L39.52,86l-.83-.26a37.48,37.48,0,0,1-6-2.48l-.77-.4-8.22,4.93-12.4-12.4L9.12,77.62,23.24,91.75l8.83-5.3a40.59,40.59,0,0,0,4.84,2l2.49,10H60.6l2.49-10a41.43,41.43,0,0,0,4.85-2l8.82,5.29,15-15-5.29-8.82a41.43,41.43,0,0,0,2-4.85Z"/><path class="cls-1" d="M14,68.72l2.77-1.44a37.1,37.1,0,0,1-2.48-6L14,60.48,4.69,58.15V41.85L14,39.52l.26-.83a37.48,37.48,0,0,1,2.48-6l.4-.77-4.93-8.22L23.72,12.19l8.22,4.94.78-.41a37.64,37.64,0,0,1,6-2.48l.83-.26,2.33-9.29h16.3L60.48,14l.83.26a37.48,37.48,0,0,1,6,2.48l.77.4,8.22-4.93,12.4,12.4,2.21-2.21L76.76,8.25l-8.83,5.3a40.59,40.59,0,0,0-4.84-2l-2.49-10H39.4l-2.49,10a41.43,41.43,0,0,0-4.85,2L23.24,8.26l-15,15,5.29,8.82a41.43,41.43,0,0,0-2,4.85l-10,2.49V60.6l10,2.49A42.06,42.06,0,0,0,14,68.72Z"/><path class="cls-1" d="M50,15.63A34.38,34.38,0,1,0,84.38,50,34.41,34.41,0,0,0,50,15.63Zm0,65.62A31.25,31.25,0,1,1,81.25,50,31.29,31.29,0,0,1,50,81.25Z"/><rect class="cls-1" x="48.44" y="7.81" width="3.13" height="3.13"/><rect class="cls-1" x="19.71" y="19.71" width="3.12" height="3.12" transform="translate(-8.81 21.27) rotate(-45)"/><rect class="cls-1" x="7.81" y="48.44" width="3.13" height="3.13"/><rect class="cls-1" x="19.71" y="77.16" width="3.12" height="3.12" transform="translate(-49.44 38.1) rotate(-45)"/><rect class="cls-1" x="48.44" y="89.06" width="3.13" height="3.13"/><rect class="cls-1" x="77.16" y="77.16" width="3.12" height="3.12" transform="translate(-32.61 78.73) rotate(-45)"/><rect class="cls-1" x="89.06" y="48.44" width="3.13" height="3.13"/><rect class="cls-1" x="77.16" y="19.71" width="3.12" height="3.12" transform="translate(8.02 61.9) rotate(-45)"/><path class="cls-1" d="M59.38,40.63H40.63V59.38H59.38ZM56.25,56.25H43.75V43.75h12.5Z"/><path class="cls-1" d="M65.63,34.38H57.81V29.69H54.69v4.69H51.56V29.69H48.44v4.69H45.31V29.69H42.19v4.69H34.38v7.81H29.69v3.12h4.69v3.13H29.69v3.12h4.69v3.13H29.69v3.12h4.69v7.82h7.81v4.68h3.12V65.63h3.13v4.68h3.12V65.63h3.13v4.68h3.12V65.63h7.82V57.81h4.68V54.69H65.63V51.56h4.68V48.44H65.63V45.31h4.68V42.19H65.63ZM62.5,62.5h-25v-25h25Z"/><rect class="cls-1" x="42.19" y="23.44" width="3.13" height="3.13"/><rect class="cls-1" x="48.44" y="23.44" width="3.13" height="3.13"/><rect class="cls-1" x="54.69" y="23.44" width="3.13" height="3.13"/><rect class="cls-1" x="23.44" y="54.69" width="3.13" height="3.13"/><rect class="cls-1" x="23.44" y="48.44" width="3.13" height="3.13"/><rect class="cls-1" x="23.44" y="42.19" width="3.13" height="3.13"/><rect class="cls-1" x="54.69" y="73.44" width="3.13" height="3.13"/><rect class="cls-1" x="48.44" y="73.44" width="3.13" height="3.13"/><rect class="cls-1" x="42.19" y="73.44" width="3.13" height="3.13"/><rect class="cls-1" x="73.44" y="42.19" width="3.13" height="3.13"/><rect class="cls-1" x="73.44" y="48.44" width="3.13" height="3.13"/><rect class="cls-1" x="73.44" y="54.69" width="3.13" height="3.13"/></svg>