<svg id="Layer_1" data-name="Layer 1" xmlns="http://www.w3.org/2000/svg" viewBox="0 0 100 100"><defs><style>.cls-1{fill:#3fa9f5;}</style></defs><title>our_mission</title><path class="cls-1" d="M50,28.13A14.06,14.06,0,1,0,64.06,42.19,14.07,14.07,0,0,0,50,28.13Zm0,15.62a1.56,1.56,0,1,1,1.56-1.56A1.56,1.56,0,0,1,50,43.75ZM51.56,53V46.59a4.69,4.69,0,1,0-3.12,0V53a10.94,10.94,0,1,1,3.12,0Z"/><path class="cls-1" d="M68.55,50.44c.14-.33.28-.65.4-1l7.61-1.27v-12L69,34.91c-.23-.61-.51-1.23-.81-1.84l-2.79,1.41a17.39,17.39,0,0,1,1,2.31l.29.89,6.84,1.14v6.73L66.6,46.69l-.29.9a18,18,0,0,1-1,2.31l-.43.84,4,5.64L64.2,61.14l-5.65-4-.84.42a18.05,18.05,0,0,1-2.31,1l-.9.29-1.14,6.84H46.64L45.5,58.79l-.9-.29a18.05,18.05,0,0,1-2.31-1l-.84-.42-5.65,4-5.69-5.69L27.9,57.66l7.57,7.56,6.28-4.49c.32.15.65.28,1,.41L44,68.75H56l1.27-7.61c.32-.13.65-.26,1-.41l6.28,4.49,8.5-8.5Z"/><path class="cls-1" d="M23.44,36.18v12l7.61,1.27c.23.61.51,1.22.81,1.83l2.79-1.4a18,18,0,0,1-1-2.31l-.29-.9-6.84-1.14V38.82l6.84-1.14.29-.89a18,18,0,0,1,1-2.31l.43-.84-4-5.65,4.75-4.75,5.65,4,.84-.43a18.21,18.21,0,0,1,2.31-1l.9-.3,1.14-6.83h6.72l1.14,6.83.9.3a16.86,16.86,0,0,1,2.31,1l.84.43,5.65-4,5.69,5.7,2.21-2.21-7.57-7.57-6.28,4.49-1-.41L56,15.63H44l-1.27,7.6-1,.41-6.28-4.49L27,27.65l4.48,6.29c-.14.32-.28.64-.4,1Z"/><rect class="cls-1" x="48.44" y="21.88" width="3.13" height="3.13"/><rect class="cls-1" x="35.18" y="27.37" width="3.12" height="3.12" transform="translate(-9.69 34.45) rotate(-45)"/><rect class="cls-1" x="29.69" y="40.63" width="3.13" height="3.13"/><rect class="cls-1" x="35.18" y="53.88" width="3.12" height="3.12" transform="translate(-28.44 42.22) rotate(-45)"/><rect class="cls-1" x="48.44" y="59.38" width="3.13" height="3.13"/><rect class="cls-1" x="61.69" y="53.88" width="3.12" height="3.12" transform="translate(-20.68 60.97) rotate(-45)"/><rect class="cls-1" x="67.19" y="40.63" width="3.13" height="3.13"/><rect class="cls-1" x="61.7" y="27.37" width="3.12" height="3.12" transform="translate(-1.93 53.2) rotate(-45)"/><path class="cls-1" d="M50,89.06a4.69,4.69,0,1,0,4.69,4.69A4.7,4.7,0,0,0,50,89.06Zm0,6.25a1.56,1.56,0,1,1,1.56-1.56A1.56,1.56,0,0,1,50,95.31Z"/><path class="cls-1" d="M93.75,89.06a4.69,4.69,0,1,0,4.69,4.69A4.7,4.7,0,0,0,93.75,89.06Zm0,6.25a1.56,1.56,0,1,1,1.56-1.56A1.56,1.56,0,0,1,93.75,95.31Z"/><path class="cls-1" d="M6.25,89.06a4.69,4.69,0,1,0,4.69,4.69A4.7,4.7,0,0,0,6.25,89.06Zm0,6.25a1.56,1.56,0,1,1,1.56-1.56A1.56,1.56,0,0,1,6.25,95.31Z"/><path class="cls-1" d="M6.25,73.44a4.69,4.69,0,1,0,4.69,4.69A4.7,4.7,0,0,0,6.25,73.44Zm0,6.25a1.57,1.57,0,1,1,1.56-1.56A1.56,1.56,0,0,1,6.25,79.69Z"/><rect class="cls-1" x="48.44" y="71.88" width="3.13" height="14.06"/><path class="cls-1" d="M31.25,84.38a7.82,7.82,0,0,1-7.81,7.81H14.06v3.12h9.38A11,11,0,0,0,34.38,84.38V65.63H31.25Z"/><path class="cls-1" d="M21.88,75a1.57,1.57,0,0,1-1.57,1.56H14.06v3.13h6.25A4.7,4.7,0,0,0,25,75V51.56H21.88Z"/><path class="cls-1" d="M93.75,73.44a4.69,4.69,0,1,0,4.69,4.69A4.7,4.7,0,0,0,93.75,73.44Zm0,6.25a1.57,1.57,0,1,1,1.56-1.56A1.56,1.56,0,0,1,93.75,79.69Z"/><path class="cls-1" d="M68.75,84.38V65.63H65.63V84.38A10.94,10.94,0,0,0,76.56,95.31h9.38V92.19H76.56A7.82,7.82,0,0,1,68.75,84.38Z"/><path class="cls-1" d="M78.13,75V51.56H75V75a4.7,4.7,0,0,0,4.69,4.69h6.25V76.56H79.69A1.56,1.56,0,0,1,78.13,75Z"/><path class="cls-1" d="M98.44,35.94a12.52,12.52,0,0,0-12.5-12.5,12.66,12.66,0,0,0-1.64.12A14,14,0,0,0,65.68,11.73a17.17,17.17,0,0,0-31.36,0A14,14,0,0,0,15.7,23.55a12.78,12.78,0,0,0-1.64-.11,12.5,12.5,0,0,0,0,25h6.25V45.31H14.06a9.38,9.38,0,1,1,8-14.2l2.68-1.61a12.55,12.55,0,0,0-6-5.13,10.93,10.93,0,0,1,18.14-7.58L39,14.45a14.5,14.5,0,0,0-1.85-1.37,14.06,14.06,0,0,1,25.74,0,14.06,14.06,0,0,0-3.11,2.61l2.35,2.07a10.92,10.92,0,0,1,19.11,6.59,12.43,12.43,0,0,0-4,2.65l2.19,2.23a9.37,9.37,0,1,1,6.56,16.07H79.69v3.13h6.25A12.52,12.52,0,0,0,98.44,35.94Z"/></svg>