<?xml version="1.0" encoding="UTF-8"?>
<svg xmlns="http://www.w3.org/2000/svg" id="Group_424" data-name="Group 424" viewBox="0 0 46.533 33.238">
  <defs>
    <style>
      .cls-1 {
        fill: #051c2c;
      }

      .cls-2 {
        fill: #00b073;
      }
    </style>
  </defs>
  <path id="Path_183" data-name="Path 183" class="cls-1" d="M44.871,33.238H1.662A1.57,1.57,0,0,1,0,31.576V19.943a1.57,1.57,0,0,1,1.662-1.662,1.57,1.57,0,0,1,1.662,1.662v9.971H43.209V3.324H19.943a1.57,1.57,0,0,1-1.662-1.662A1.57,1.57,0,0,1,19.943,0H44.871a1.57,1.57,0,0,1,1.662,1.662V31.576A1.57,1.57,0,0,1,44.871,33.238Z"></path>
  <path id="Path_184" data-name="Path 184" class="cls-1" d="M25.633,8.324H15.662A1.57,1.57,0,0,1,14,6.662,1.57,1.57,0,0,1,15.662,5h9.971A1.57,1.57,0,0,1,27.3,6.662,1.57,1.57,0,0,1,25.633,8.324Z" transform="translate(9.266 3.309)"></path>
  <path id="Path_185" data-name="Path 185" class="cls-1" d="M27.619,12.324H12.662A1.57,1.57,0,0,1,11,10.662,1.57,1.57,0,0,1,12.662,9H27.619a1.57,1.57,0,0,1,1.662,1.662A1.57,1.57,0,0,1,27.619,12.324Z" transform="translate(7.281 5.957)"></path>
  <path id="Path_186" data-name="Path 186" class="cls-1" d="M30.928,16.324H7.662A1.57,1.57,0,0,1,6,14.662,1.57,1.57,0,0,1,7.662,13H30.928a1.57,1.57,0,0,1,1.662,1.662A1.57,1.57,0,0,1,30.928,16.324Z" transform="translate(3.971 8.605)"></path>
  <path id="Path_187" data-name="Path 187" class="cls-2" d="M8.642,17.45a1.509,1.509,0,0,1-1.163-.5l-1.5-1.662H3.656a1.57,1.57,0,0,1-1.662-1.662v-2.16L.5,9.805a1.606,1.606,0,0,1,0-2.327l1.5-1.5V3.656A1.57,1.57,0,0,1,3.656,1.994h2.16L7.312.5A1.606,1.606,0,0,1,9.639.5l1.5,1.5H13.3a1.57,1.57,0,0,1,1.662,1.662v2.16l1.5,1.5a1.606,1.606,0,0,1,0,2.327l-1.163,1.828v2.16a1.57,1.57,0,0,1-1.662,1.662h-2.16l-1.5,1.5A1.511,1.511,0,0,1,8.642,17.45ZM5.318,11.966h1.33a1.509,1.509,0,0,1,1.163.5l.831.831.831-.831a2.21,2.21,0,0,1,1.33-.5h1.33V10.8a1.509,1.509,0,0,1,.5-1.163l.831-.831-1-1a1.509,1.509,0,0,1-.5-1.163V5.318H10.8a1.509,1.509,0,0,1-1.163-.5l-1-.831-.831.831a1.509,1.509,0,0,1-1.163.5H5.318v1.33a1.509,1.509,0,0,1-.5,1.163l-.831.831.831.831a2.21,2.21,0,0,1,.5,1.33Z" transform="translate(0 0)"></path>
</svg>
