<?xml version="1.0" encoding="UTF-8"?>
<svg xmlns="http://www.w3.org/2000/svg" xmlns:xlink="http://www.w3.org/1999/xlink" id="Group_241" x="0px" y="0px" viewBox="0 0 39.9 39.9" style="enable-background:new 0 0 39.9 39.9;" xml:space="preserve">
<style type="text/css">
	.st0{fill:#00B073;}
	.st1{fill:#051C2C;}
</style>
<path id="Path_194" class="st0" d="M19.9,26.6c-3.7,0-6.6-3-6.6-6.7s3-6.6,6.7-6.6c3.7,0,6.6,3,6.6,6.6  C26.6,23.6,23.6,26.6,19.9,26.6z M19.9,16.6c-1.8,0-3.3,1.5-3.3,3.3c0,1.8,1.5,3.3,3.3,3.3s3.3-1.5,3.3-3.3  C23.3,18.1,21.8,16.6,19.9,16.6L19.9,16.6z"></path>
<path id="Path_195" class="st0" d="M35.7,24.1c-2.3,0-4.2-1.9-4.2-4.2c0-2.3,1.9-4.2,4.2-4.2c2.3,0,4.2,1.9,4.2,4.2  C39.9,22.2,38.1,24.1,35.7,24.1C35.8,24.1,35.8,24.1,35.7,24.1z M35.7,19.1c-0.5,0-0.8,0.4-0.8,0.8s0.4,0.8,0.8,0.8  c0.5,0,0.8-0.4,0.8-0.8l0,0C36.6,19.5,36.3,19.1,35.7,19.1C35.8,19.1,35.8,19.1,35.7,19.1L35.7,19.1z"></path>
<path id="Path_196" class="st0" d="M19.9,39.9c-2.3,0-4.2-1.9-4.2-4.2s1.9-4.2,4.2-4.2c2.3,0,4.2,1.9,4.2,4.2  C24.1,38,22.3,39.9,19.9,39.9C20,39.9,20,39.9,19.9,39.9z M19.9,34.9c-0.5,0-0.8,0.4-0.8,0.8c0,0.5,0.4,0.8,0.8,0.8  c0.5,0,0.8-0.4,0.8-0.8l0,0C20.8,35.3,20.5,34.9,19.9,34.9C20,34.9,20,34.9,19.9,34.9L19.9,34.9z"></path>
<path id="Path_197" class="st1" d="M34.9,10c-2.7,0-4.9-2.1-5-4.8c0-0.1,0-0.1,0-0.2c0-2.8,2.2-5,4.9-5.1s5,2.2,5.1,4.9  c0,0,0,0.1,0,0.1c0,2.7-2.1,4.9-4.8,5C35,10,35,10,34.9,10z M34.9,3.3c-0.9-0.1-1.6,0.6-1.7,1.5c0,0.1,0,0.1,0,0.2  c0,0.9,0.7,1.7,1.7,1.7c0.9,0,1.7-0.7,1.7-1.7c0.1-0.9-0.6-1.6-1.5-1.7C35,3.3,35,3.3,34.9,3.3L34.9,3.3z"></path>
<path id="Path_198" class="st1" d="M5,39.9c-2.8,0-5-2.2-5.1-4.9c0-2.8,2.2-5,4.9-5.1c0,0,0.1,0,0.1,0c2.8,0,5,2.2,5.1,4.9  s-2.2,5-4.9,5.1C5.1,39.9,5,39.9,5,39.9z M5,33.2c-0.9,0-1.7,0.7-1.7,1.7c0,0.9,0.7,1.7,1.7,1.7c0,0,0,0,0,0c0.9,0,1.7-0.7,1.7-1.7  S5.9,33.2,5,33.2C5,33.2,5,33.2,5,33.2z"></path>
<path id="Path_199" class="st0" d="M7.5,11.6c-2.3,0-4.1-1.8-4.2-4.1c0,0,0-0.1,0-0.1c0-2.3,1.8-4.1,4.1-4.2c0,0,0.1,0,0.1,0  c2.3,0,4.1,1.8,4.2,4.1c0,0,0,0.1,0,0.1C11.7,9.8,9.8,11.6,7.5,11.6C7.5,11.6,7.5,11.6,7.5,11.6z M7.5,6.6C7,6.6,6.7,7,6.6,7.4  c0,0,0,0.1,0,0.1c0,0.4,0.3,0.8,0.7,0.8c0,0,0.1,0,0.1,0c0.4,0,0.8-0.3,0.8-0.7c0,0,0-0.1,0-0.1C8.3,7,8,6.7,7.5,6.6  C7.5,6.6,7.5,6.6,7.5,6.6L7.5,6.6z"></path>
<rect id="Rectangle_115" x="11.7" y="8.6" transform="matrix(0.7071 -0.7071 0.7071 0.7071 -5.5316 13.3536)" class="st0" width="3.3" height="9.5"></rect>
<path id="Path_200" class="st1" d="M26.9,14.6c-0.4,0-0.9-0.2-1.2-0.5c-0.6-0.6-0.7-1.6-0.1-2.3c0,0,0,0,0.1-0.1l4.7-4.7  c0.6-0.6,1.7-0.6,2.3,0c0.6,0.6,0.6,1.7,0,2.3l-4.7,4.7C27.8,14.5,27.4,14.7,26.9,14.6z"></path>
<path id="Path_201" class="st1" d="M7.5,34.1c-0.4,0-0.9-0.2-1.2-0.5c-0.6-0.6-0.7-1.6-0.1-2.3c0,0,0,0,0.1-0.1l5.5-5.5  c0.6-0.6,1.7-0.6,2.3,0c0.6,0.6,0.6,1.7,0,2.3l0,0l-5.5,5.5C8.3,33.9,7.9,34.1,7.5,34.1z"></path>
<path id="Path_202" class="st0" d="M33.2,21.6h-8.3c-0.9,0.1-1.6-0.6-1.7-1.5c0-0.1,0-0.1,0-0.2c-0.1-0.9,0.6-1.6,1.5-1.7  c0.1,0,0.1,0,0.2,0h8.3c0.9-0.1,1.6,0.6,1.7,1.5c0,0.1,0,0.1,0,0.2c0.1,0.9-0.6,1.6-1.5,1.7C33.4,21.6,33.3,21.6,33.2,21.6z"></path>
<path id="Path_203" class="st0" d="M19.9,34.9c-0.9,0.1-1.6-0.6-1.7-1.5c0-0.1,0-0.1,0-0.2v-8.3c-0.1-0.9,0.6-1.6,1.5-1.7  c0.1,0,0.1,0,0.2,0c0.9-0.1,1.6,0.6,1.7,1.5c0,0.1,0,0.1,0,0.2v8.3c0.1,0.9-0.6,1.6-1.5,1.7C20.1,34.9,20,34.9,19.9,34.9z"></path>
</svg>
