<?xml version="1.0" encoding="UTF-8"?>
<svg xmlns="http://www.w3.org/2000/svg" id="Group_423" data-name="Group 423" viewBox="0 0 33.238 46.533">
  <defs>
    <style>
      .cls-1 {
        fill: #051c2c;
      }

      .cls-2 {
        fill: #00b073;
      }
    </style>
  </defs>
  <path id="Path_178" data-name="Path 178" class="cls-1" d="M28.751,40.576H4.487A4.468,4.468,0,0,1,0,36.089v-22.6A4.468,4.468,0,0,1,4.487,9H28.751a4.468,4.468,0,0,1,4.487,4.487v22.6A4.468,4.468,0,0,1,28.751,40.576ZM4.487,12.324a1.136,1.136,0,0,0-1.163,1.163v22.6a1.136,1.136,0,0,0,1.163,1.163H28.751a1.136,1.136,0,0,0,1.163-1.163v-22.6a1.136,1.136,0,0,0-1.163-1.163Z" transform="translate(0 5.957)"></path>
  <path id="Path_179" data-name="Path 179" class="cls-1" d="M23.943,16.619H20.619V9.639a6.5,6.5,0,0,0-6.648-6.315A6.5,6.5,0,0,0,7.324,9.639v6.98H4V9.639A9.827,9.827,0,0,1,13.971,0a9.827,9.827,0,0,1,9.971,9.639Z" transform="translate(2.648 0)"></path>
  <path id="Path_180" data-name="Path 180" class="cls-2" d="M15.971,31.281H9.324a1.57,1.57,0,0,1-1.662-1.662v-5.65a6.648,6.648,0,1,1,9.971,0v5.65A1.57,1.57,0,0,1,15.971,31.281Zm-4.986-3.324h3.324V23.3a1.294,1.294,0,0,1,.5-1.163,3.534,3.534,0,0,0,1.163-2.493,3.324,3.324,0,0,0-6.648,0,2.99,2.99,0,0,0,1.163,2.493,1.8,1.8,0,0,1,.5,1.163Z" transform="translate(3.971 8.605)"></path>
  <path id="Path_181" data-name="Path 181" class="cls-1" d="M6.648,25.324H1.662a1.662,1.662,0,1,1,0-3.324H6.648a1.662,1.662,0,1,1,0,3.324Z" transform="translate(0 14.562)"></path>
  <path id="Path_182" data-name="Path 182" class="cls-1" d="M21.648,25.324H16.662a1.662,1.662,0,0,1,0-3.324h4.986a1.662,1.662,0,1,1,0,3.324Z" transform="translate(9.928 14.562)"></path>
</svg>
