<?xml version="1.0" encoding="UTF-8"?>
<svg xmlns="http://www.w3.org/2000/svg" id="Group_425" data-name="Group 425" viewBox="0 0 46.533 33.238">
  <defs>
    <style>
      .cls-1 {
        fill: #00b073;
      }

      .cls-2 {
        fill: #051c2c;
      }
    </style>
  </defs>
  <g id="Group_239" data-name="Group 239" transform="translate(28.584 6.648)">
    <path id="Path_188" data-name="Path 188" class="cls-1" d="M18.862,20.558a1.509,1.509,0,0,1-1.163-.5,1.887,1.887,0,0,1-.5-1.33l.665-4.155a1.436,1.436,0,0,1,.5-1l6.98-6.98a1.509,1.509,0,0,1,1.163-.5h0a1.509,1.509,0,0,1,1.163.5l3.49,3.49a1.606,1.606,0,0,1,0,2.327L24.18,19.4a1.436,1.436,0,0,1-1,.5l-4.155.665ZM22.85,18.4Zm-1.828-2.825-.166,1.33,1.33-.166,5.484-5.484-1.163-1.163Z" transform="translate(-17.2 -2.61)"></path>
    <path id="Path_189" data-name="Path 189" class="cls-1" d="M26.952,14.3a1.509,1.509,0,0,1-1.163-.5l-3.49-3.49a1.606,1.606,0,0,1,0-2.327l3.49-3.49a1.606,1.606,0,0,1,2.327,0l3.49,3.49a1.606,1.606,0,0,1,0,2.327l-3.49,3.49A1.8,1.8,0,0,1,26.952,14.3ZM25.789,9.152l1.163,1.163,1.163-1.163L26.952,7.989Z" transform="translate(-14.155 -4)"></path>
  </g>
  <path id="Path_190" data-name="Path 190" class="cls-2" d="M44.871,25.957H1.662A1.57,1.57,0,0,1,0,24.3V12.662A1.57,1.57,0,0,1,1.662,11a1.57,1.57,0,0,1,1.662,1.662v9.971H43.209V12.662a1.662,1.662,0,0,1,3.324,0V24.3A1.57,1.57,0,0,1,44.871,25.957Z" transform="translate(0 7.281)"></path>
  <path id="Path_191" data-name="Path 191" class="cls-2" d="M37.59,4.986a1.57,1.57,0,0,1-1.662-1.662H12.662A1.57,1.57,0,0,1,11,1.662,1.57,1.57,0,0,1,12.662,0H37.59a1.57,1.57,0,0,1,1.662,1.662V3.324A1.57,1.57,0,0,1,37.59,4.986Z" transform="translate(7.281 0)"></path>
  <path id="Path_192" data-name="Path 192" class="cls-2" d="M20.957,16.324H7.662A1.57,1.57,0,0,1,6,14.662,1.57,1.57,0,0,1,7.662,13h13.3a1.57,1.57,0,0,1,1.662,1.662A1.57,1.57,0,0,1,20.957,16.324Z" transform="translate(3.971 8.605)"></path>
  <path id="Path_193" data-name="Path 193" class="cls-1" d="M8.642,17.45a1.509,1.509,0,0,1-1.163-.5l-1.662-1.5H3.656a1.57,1.57,0,0,1-1.662-1.662V11.467L.332,9.805A1.937,1.937,0,0,1,0,8.642,1.509,1.509,0,0,1,.5,7.478L2.16,5.817V3.656A1.57,1.57,0,0,1,3.822,1.994h2.16L7.645.5a1.185,1.185,0,0,1,1-.5h0a1.887,1.887,0,0,1,1.33.5l1.5,1.5h2.16a1.57,1.57,0,0,1,1.662,1.662v2.16l1.5,1.5a1.606,1.606,0,0,1,0,2.327l-1.5,1.828v2.16a1.57,1.57,0,0,1-1.662,1.662h-2.16l-1.5,1.662A1.887,1.887,0,0,1,8.642,17.45ZM5.318,11.966h1.33a1.509,1.509,0,0,1,1.163.5l.831.831.831-.831a2.21,2.21,0,0,1,1.33-.5h1.33V10.8a1.509,1.509,0,0,1,.5-1.163l.831-.831-1-1a1.509,1.509,0,0,1-.5-1.163V5.318H10.8a1.509,1.509,0,0,1-1.163-.5l-1-.831-.831.831a1.509,1.509,0,0,1-1.163.5H5.318v1.33a1.509,1.509,0,0,1-.5,1.163l-.831.831,1,1A2.4,2.4,0,0,1,5.318,10.8Z" transform="translate(0 0)"></path>
</svg>
