<?xml version="1.0" encoding="UTF-8"?>
<svg xmlns="http://www.w3.org/2000/svg" xmlns:xlink="http://www.w3.org/1999/xlink" id="Group_242" x="0px" y="0px" viewBox="0 0 46.5 33.2" style="enable-background:new 0 0 46.5 33.2;" xml:space="preserve">
<style type="text/css">
	.st0{fill:#051C2C;}
	.st1{fill:#00B073;}
</style>
<path id="Path_204" class="st0" d="M44.9,33.2c-0.9,0.1-1.6-0.6-1.7-1.5c0-0.1,0-0.1,0-0.2V3.3H3.3v26.6h15c0.9,0,1.7,0.7,1.7,1.7  c0,0.9-0.7,1.7-1.7,1.7H1.7c-0.9,0.1-1.6-0.6-1.7-1.5c0-0.1,0-0.1,0-0.2V1.7C-0.1,0.8,0.6,0.1,1.5,0c0.1,0,0.1,0,0.2,0h43.2  c0.9-0.1,1.6,0.6,1.7,1.5c0,0.1,0,0.1,0,0.2v29.9c0.1,0.9-0.6,1.6-1.5,1.7C45,33.2,44.9,33.2,44.9,33.2z"></path>
<path id="Path_205" class="st0" d="M44.9,10H1.7C0.8,10,0.1,9.4,0,8.5c0-0.1,0-0.1,0-0.2c-0.1-0.9,0.6-1.6,1.5-1.7  c0.1,0,0.1,0,0.2,0h43.2c0.9-0.1,1.6,0.6,1.7,1.5c0,0.1,0,0.1,0,0.2c0.1,0.9-0.6,1.6-1.5,1.7C45,10,44.9,10,44.9,10z"></path>
<path id="Path_206" class="st0" d="M8.3,10C7.4,10,6.7,9.4,6.6,8.5c0-0.1,0-0.1,0-0.2V1.7C6.6,0.8,7.3,0.1,8.1,0c0.1,0,0.1,0,0.2,0  C9.2-0.1,9.9,0.6,10,1.5c0,0.1,0,0.1,0,0.2v6.6C10,9.2,9.4,9.9,8.5,10C8.4,10,8.4,10,8.3,10z"></path>
<path id="Path_207" class="st1" d="M28.3,29.9c-4.6,0-8.3-3.7-8.3-8.3s3.7-8.3,8.3-8.3s8.3,3.7,8.3,8.3l0,0c0,4.5-3.6,8.3-8.1,8.3  C28.4,29.9,28.3,29.9,28.3,29.9z M28.3,16.6c-2.7,0-4.9,2.1-5,4.8c0,0.1,0,0.1,0,0.2c0,2.8,2.2,5,4.9,5.1c2.8,0,5-2.2,5.1-4.9  c0,0,0-0.1,0-0.1c0-2.7-2.1-4.9-4.8-5C28.4,16.6,28.3,16.6,28.3,16.6L28.3,16.6z"></path>
<path id="Path_208" class="st1" d="M38.2,33.2c-0.4,0-0.9-0.2-1.2-0.5l-5-5c-0.6-0.7-0.6-1.7,0.1-2.3c0.6-0.6,1.6-0.6,2.2,0l5,5  c0.6,0.6,0.7,1.6,0.1,2.3c0,0,0,0-0.1,0.1C39.1,33.1,38.7,33.2,38.2,33.2z"></path>
</svg>
