<?xml version="1.0" encoding="UTF-8"?>
<svg xmlns="http://www.w3.org/2000/svg" xmlns:xlink="http://www.w3.org/1999/xlink" id="Group_243" x="0px" y="0px" viewBox="0 0 46.5 33.2" style="enable-background:new 0 0 46.5 33.2;" xml:space="preserve">
<style type="text/css">
	.st0{fill:#00B073;}
	.st1{fill:#051C2C;}
</style>
<path id="Path_209" class="st0" d="M36.6,20.9h-3.3v-2.7c0.1-0.9-0.6-1.6-1.5-1.7c-0.1,0-0.1,0-0.2,0c-0.8-0.1-1.6,0.6-1.7,1.4  c0,0,0,0.1,0,0.1v2.8h-3.3v-2.7c0-2.7,2.1-4.9,4.8-5c0.1,0,0.1,0,0.2,0c2.7-0.1,4.9,2.1,5,4.7c0,0,0,0.1,0,0.1L36.6,20.9z"></path>
<path id="Path_210" class="st1" d="M44.9,33.2c-0.9,0.1-1.6-0.6-1.7-1.5c0-0.1,0-0.1,0-0.2V3.3H3.3v26.6h15c0.9,0,1.7,0.7,1.7,1.7  c0,0.9-0.7,1.7-1.7,1.7H1.7c-0.9,0.1-1.6-0.6-1.7-1.5c0-0.1,0-0.1,0-0.2V1.7C-0.1,0.8,0.6,0.1,1.5,0c0.1,0,0.1,0,0.2,0h43.2  c0.9-0.1,1.6,0.6,1.7,1.5c0,0.1,0,0.1,0,0.2v29.9c0.1,0.9-0.6,1.6-1.5,1.7C45,33.2,44.9,33.2,44.9,33.2z"></path>
<path id="Path_211" class="st1" d="M44.9,10H1.7C0.8,10,0.1,9.4,0,8.5c0-0.1,0-0.1,0-0.2c-0.1-0.9,0.6-1.6,1.5-1.7  c0.1,0,0.1,0,0.2,0h43.2c0.9-0.1,1.6,0.6,1.7,1.5c0,0.1,0,0.1,0,0.2c0.1,0.9-0.6,1.6-1.5,1.7C45,10,44.9,10,44.9,10z"></path>
<path id="Path_212" class="st1" d="M8.3,10C7.4,10,6.7,9.4,6.6,8.5c0-0.1,0-0.1,0-0.2V1.7C6.6,0.8,7.3,0.1,8.1,0c0.1,0,0.1,0,0.2,0  C9.2-0.1,9.9,0.6,10,1.5c0,0.1,0,0.1,0,0.2v6.6C10,9.2,9.4,9.9,8.5,10C8.4,10,8.4,10,8.3,10z"></path>
<path id="Path_213" class="st0" d="M38.2,33.2H24.9c-0.9,0-1.6-0.6-1.7-1.5c0-0.1,0-0.1,0-0.2v-10c-0.1-0.9,0.6-1.6,1.5-1.7  c0.1,0,0.1,0,0.2,0h13.3c0.9-0.1,1.6,0.6,1.7,1.5c0,0.1,0,0.1,0,0.2v10c0.1,0.9-0.6,1.6-1.5,1.7C38.4,33.2,38.3,33.2,38.2,33.2z   M26.6,29.9h10v-6.6h-10V29.9z"></path>
</svg>
