<svg xmlns="http://www.w3.org/2000/svg" width="1301.333" height="1301.333" version="1.0" viewBox="0 0 976 976"><path d="M.6 206.7c.3 1.6 1.1 4.6 1.6 6.8.6 2.2 1.2 4.9 1.3 6 .3 2.1 3.2 15.3 6 27 .9 3.8 1.8 7.9 2 9 .2 1.1 1.1 5.1 2 9 .9 3.8 1.8 8.1 2 9.5.2 1.4 1.1 5.2 1.9 8.6.8 3.4 1.7 7.2 2 8.5.3 1.3 1.5 6.7 2.6 11.9 1.2 5.2 2.3 10.4 2.6 11.5.2 1.1.7 3.1 1 4.5.3 1.4 1 4.3 1.4 6.5.5 2.2 1.8 8.3 3 13.5 1.2 5.2 2.3 10.4 2.5 11.5.3 1.1.9 4.1 1.5 6.6.6 2.6 1.3 5.3 1.4 6 .2.8.6 2.5.9 3.9.4 1.4 1.8 7.8 3.2 14.2 1.4 6.5 2.7 12.3 3 13 .2.7.6 2.6.9 4.3.2 1.6 1.6 8.2 3.1 14.5 1.5 6.3 2.9 12.6 3.1 14 .3 1.4 1.1 5.2 1.9 8.5 1.4 6.2 5.4 23.5 6.1 27 .3 1.1.9 4 1.5 6.5 1.4 6.4 1.8 8.7 2.3 11.2 1 4.8 1.6 7.4 2.5 11.3 1.3 5.3 4.1 17.7 4.5 19.6.2 1.3 2.8 12.9 3.1 13.9.1.3.5 2.3.9 4.5.5 2.2 1.4 6.5 2.1 9.5.8 3 1.6 6.6 1.9 8 .6 3.2 4.5 20.8 5.9 26.5.3 1.1 1.2 5.6 2.1 10 1 4.4 2.8 12.7 4.2 18.5 1.4 5.8 2.7 11.4 2.9 12.5.2 1.1 1 5.4 2 9.5.9 4.1 1.8 8.2 2 9 .2.8 1 4.5 1.9 8.3.9 3.7 1.8 8.1 2.1 9.9.3 1.7.7 3.4.9 3.7.2.3.7 2.2 1 4.1.3 1.9.8 4.4 1 5.5.3 1.1 1.1 4.9 1.9 8.5.8 3.6 2.4 10.5 3.5 15.5 1.2 4.9 2.3 10.1 2.6 11.5.2 1.4 1.1 5.4 2 9 .8 3.6 1.8 8 2.1 9.9.3 1.9.8 3.7 1 4.1.2.4.7 2 .9 3.6.8 3.9 1 5 4.1 18.9 1.5 6.6 2.8 12.4 3 13 .1.5.8 3.8 1.5 7.3l1.3 6.2h156.6l1-3.8c.5-2 1.2-5.1 1.7-6.7.4-1.7.8-3.5.9-4 .2-.6 3.3-12.9 7-27.5 3.6-14.6 6.8-27.2 7-28 .2-.8 1.5-6.2 3-12 1.4-5.8 2.8-11.3 3-12.3.2-1 .7-2.7 1-3.7.3-1 .8-2.7 1-3.7.2-1 1.1-4.7 2-8.3.9-3.6 1.8-7.4 2-8.5.3-1.1.7-2.9.9-4 .3-1.1 1.2-4.5 2-7.7.8-3.1 1.8-6.7 2-8 .3-1.2 1-4.1 1.6-6.3.6-2.2 1.3-5.1 1.6-6.5.3-1.4.8-3.4 1.1-4.5.7-2.1.8-2.5 1.6-6.5.3-1.4.8-3.2 1.1-4 .3-.8.8-2.8 1-4.4.3-1.6.7-3 .9-3.2.2-.2 14-.3 30.8-.3 28.7 0 35.1 0 36.7-.2.4-.1 3.2-.1 6.3 0l5.7.1 2.2 8.7c1.2 4.9 2.3 9.5 2.5 10.3.2.8 1.5 6.2 3 12s2.9 11.6 3.2 12.9c.2 1.3.8 3.2 1.4 4.3.5 1 .8 1.8.5 1.8-.3 0 0 1.5.6 3.2.5 1.8 1.8 6.9 2.9 11.3 2.7 10.9 2.5 10.3 4.3 17 .9 3.3 1.9 6.9 2.1 8 .7 2.9 10.7 42.4 14.9 59 2 7.7 3.9 15.1 4.1 16.5.3 1.4.9 3.8 1.3 5.5l.8 3 263.2.3 263.2.2V653h-3.7c-2.1-.1-54.1-.1-115.6-.1-101.2-.1-111.9-.3-112.5-1.7-.5-1.4-.7-6-.2-8 .4-2 .1-16.4-.4-16.9-.3-.3-.1-1.2.5-2 .6-.7.8-1.3.3-1.3-.7 0-.9-9.3-.4-21.5.1-1.1 0-5.7 0-10.2-.1-4.5.1-8.7.5-9.2.3-.6.1-1.1-.5-1.1s-.9-.4-.5-.9c.8-1.4 1-17 .2-17.8-.4-.3-.2-1.2.4-2 .6-.7.8-1.3.3-1.3-.7 0-.9-9.3-.4-21.5.1-1.1 0-5.7 0-10.2-.1-4.5.1-8.7.5-9.2.3-.6.2-1.1-.2-1.1-.5 0-.6-2.5-.3-5.5s.4-5.5.1-5.5c-.4 0-.6-5.6-.6-12.5s.3-12.5.7-12.5c.4 0 .4-1-.1-2.2-.4-1.2-.5-3.9-.1-6 .4-2.2.3-3.8-.2-3.8s-.7-.4-.4-.9c.4-.5.6-4 .6-7.8 0-3.7 0-12.5-.1-19.6 0-7 .3-13.2.6-13.7.3-.6.2-1-.2-1-.8 0-.7-10.7.1-14.3.2-.9.1-1.7-.2-1.7-.6 0-.6-4.3-.2-16.5.1-1.1 0-5.7 0-10.2-.1-4.5.1-8.7.5-9.2.3-.6.1-1.1-.5-1.1s-.9-.4-.6-.9c.4-.5.6-4 .6-7.8 0-3.7 0-12.5-.1-19.6 0-7 .3-13.2.6-13.7.3-.6.2-1-.2-1-.8 0-.7-10.7.1-14.3.2-.9.1-1.7-.2-1.7-.6 0-.6-4.3-.2-16.5.1-1.1 0-5.7 0-10.2-.1-4.5.1-8.7.5-9.2.3-.6.2-1.1-.2-1.1-.5 0-.6-2.5-.3-5.5s.3-5.5 0-5.5c-.6 0-.3-11.3.4-14.3.2-.9.1-1.7-.2-1.7-.4 0-.7-5.6-.7-12.5s.4-12.5.8-12.5c.5 0 .5-.5.1-1.1-1-1.7-1.1-8.9-.1-8.9.4 0 .5-.5.1-1.2-.4-.6-.7-3.1-.5-5.5l.2-4.3h-69.5c-38.2 0-69.7.4-70 .9-.3.4-.8 2.3-1 4.2-.5 3.6-.8 4.7-2.5 11.9-.7 2.5-1.3 5.6-1.6 7-.2 1.4-1.3 6.8-2.5 12s-2.3 10.4-2.5 11.5c-.8 3.5-2.5 11.9-3 14.3-.2 1.3-.6 3.1-.9 4-.3.9-.7 2.8-1 4.2-.2 1.4-1.8 9-3.6 17-1.7 8-3.4 15.4-3.6 16.5-.2 1.1-.7 3.6-1.1 5.5-.9 4.6-1 5-1.3 5.2-.2.3-.6 2.2-1.3 6.3-.4 2.5-6.3 29.6-8.3 38.5-.3 1.4-.8 3.4-1 4.5-.2 1.1-.6 3-.9 4.2-3 13.4-5.6 25.9-5.8 27.5-.1.9-1 1.8-2.2 2-1.1.2-21.6.3-45.5.3l-43.4-.1-2.4-9.5c-1.3-5.1-2.5-10.3-2.7-11.4-.2-1.1-1.3-5.8-2.4-10.5-1.2-4.7-2.3-9.6-2.6-11-.3-1.4-.8-3.3-1.1-4.2-.3-.9-.6-2.5-.8-3.5-.2-1-2.1-8.3-4.1-16.3-2-8-3.8-15.4-4-16.5-.6-2.6-2.5-10.5-5.9-24-.8-3.3-1.7-7.1-2-8.5-.3-1.4-1-4.5-1.7-7-.6-2.5-1.2-5.2-1.4-6-.2-.8-1.5-6.1-2.9-11.7s-2.8-11.2-3-12.5c-.3-1.3-1-4.3-1.7-6.8-.6-2.5-1.3-5.6-1.5-6.9-.3-1.4-.7-2.8-.9-3.2-.3-.4-.7-2.4-1.1-4.5-.3-2.2-1-4.6-1.5-5.5-.4-.9-.8-2.4-.8-3.5 0-1-.8-4.7-1.7-8.2l-1.7-6.2H311.3l-1.8 8.2c-1 4.6-2 8.7-2.1 9.3-.3 1-5 19.9-6 24-.2 1.1-1.5 6.3-2.9 11.5s-2.7 10.7-2.9 12.2c-.3 1.5-1.1 4.6-1.7 7-.7 2.4-1.4 5-1.4 5.8-.1.8-.6 2.6-1 4-.5 1.4-1 3-1.1 3.7-.1.7-1 4.2-1.9 7.9-.9 3.7-1.9 7.5-2.1 8.3-.2.9-.8 3.2-1.3 5.1-.5 1.9-2.1 8.7-3.5 15-1.5 6.3-2.9 12.2-3.3 13-.3.8-.7 2.2-.9 3-.2.9-1 4.5-1.9 8-.9 3.6-1.8 7.6-2.1 9-.3 1.4-1.1 4.7-1.9 7.5-.8 2.7-1.6 6.1-1.9 7.5-.2 1.4-1.4 6.3-2.6 11-2.2 8.6-2.9 11.4-3.4 13.8-.1.8-.7 1.7-1.3 2-.6.4-20.6.7-44.4.7l-43.3-.1-.8-2.9c-.4-1.6-1-4.5-1.3-6.3-.3-1.9-1.2-6.4-2-10-.8-3.7-1.6-8.1-1.9-9.7-.3-1.7-.7-4.1-1.1-5.5-.6-2.6-2.3-10.9-3-14.5-.2-1.1-1.1-5.6-1.9-10-.9-4.4-1.8-9.1-2.2-10.5-.3-1.4-.8-3.6-1-5-.2-1.4-1.7-8.6-3.3-16.1-1.6-7.4-3.2-15.1-3.5-17-.3-1.9-1.2-6.3-2-9.9-.8-3.6-1.2-6.8-.9-7.3.2-.4.1-.7-.4-.7-.4 0-.9-1-1-2.3-.1-1.2-1.1-6.9-2.3-12.7-1.2-5.8-2.3-11.6-2.6-13-.2-1.4-.7-3.6-1.1-5-.3-1.4-.7-2.7-.8-3 0-.3-.5-2.8-1-5.5-.4-2.8-.9-5.5-1.1-6-.4-1.5-2.5-11.7-3-14.5-.2-1.4-.8-4.1-1.2-6l-.8-3.5-67.2-.3L0 204l.6 2.7z"/></svg>