<svg xmlns="http://www.w3.org/2000/svg" xmlns:xlink="http://www.w3.org/1999/xlink" viewBox="0 0 1881.16 1038.57"><defs><style>.cls-1,.cls-2{fill:none;opacity:0.25;}.cls-1,.cls-2,.cls-46,.cls-47,.cls-48,.cls-49,.cls-50,.cls-51,.cls-52,.cls-53,.cls-54,.cls-55,.cls-56,.cls-57,.cls-58,.cls-59,.cls-60,.cls-61,.cls-62,.cls-63,.cls-64,.cls-65,.cls-66,.cls-67,.cls-68,.cls-69,.cls-70,.cls-71,.cls-72,.cls-73,.cls-74,.cls-75,.cls-76,.cls-77,.cls-78,.cls-79,.cls-80,.cls-81,.cls-82,.cls-83,.cls-84,.cls-85,.cls-86,.cls-87,.cls-88,.cls-89,.cls-90,.cls-91,.cls-92,.cls-93,.cls-94,.cls-95{stroke-linecap:round;}.cls-1,.cls-10,.cls-11,.cls-12,.cls-13,.cls-14,.cls-15,.cls-16,.cls-17,.cls-18,.cls-19,.cls-2,.cls-20,.cls-21,.cls-22,.cls-23,.cls-24,.cls-25,.cls-26,.cls-27,.cls-28,.cls-29,.cls-30,.cls-31,.cls-32,.cls-33,.cls-34,.cls-35,.cls-36,.cls-37,.cls-38,.cls-39,.cls-4,.cls-40,.cls-41,.cls-42,.cls-43,.cls-44,.cls-46,.cls-47,.cls-48,.cls-49,.cls-5,.cls-50,.cls-51,.cls-52,.cls-53,.cls-54,.cls-55,.cls-56,.cls-57,.cls-58,.cls-59,.cls-6,.cls-60,.cls-61,.cls-62,.cls-63,.cls-64,.cls-65,.cls-66,.cls-67,.cls-68,.cls-69,.cls-7,.cls-70,.cls-71,.cls-72,.cls-73,.cls-74,.cls-75,.cls-76,.cls-77,.cls-78,.cls-79,.cls-8,.cls-80,.cls-81,.cls-82,.cls-83,.cls-84,.cls-85,.cls-86,.cls-87,.cls-88,.cls-89,.cls-9,.cls-90,.cls-91,.cls-92,.cls-93,.cls-94,.cls-95{stroke-miterlimit:10;}.cls-1,.cls-10,.cls-11,.cls-12,.cls-13,.cls-14,.cls-15,.cls-16,.cls-17,.cls-18,.cls-19,.cls-2,.cls-20,.cls-22,.cls-23,.cls-24,.cls-25,.cls-26,.cls-27,.cls-28,.cls-29,.cls-30,.cls-31,.cls-32,.cls-33,.cls-34,.cls-35,.cls-36,.cls-37,.cls-38,.cls-39,.cls-4,.cls-40,.cls-41,.cls-42,.cls-43,.cls-44,.cls-46,.cls-47,.cls-48,.cls-49,.cls-5,.cls-50,.cls-51,.cls-52,.cls-53,.cls-54,.cls-55,.cls-56,.cls-57,.cls-58,.cls-59,.cls-6,.cls-60,.cls-61,.cls-62,.cls-63,.cls-64,.cls-65,.cls-66,.cls-67,.cls-68,.cls-69,.cls-7,.cls-70,.cls-71,.cls-72,.cls-73,.cls-74,.cls-75,.cls-76,.cls-77,.cls-78,.cls-79,.cls-8,.cls-80,.cls-81,.cls-82,.cls-83,.cls-84,.cls-85,.cls-86,.cls-87,.cls-88,.cls-89,.cls-90,.cls-91,.cls-92,.cls-93,.cls-94,.cls-95{stroke-width:4px;}.cls-1{stroke:url(#linear-gradient);}.cls-2{stroke:url(#top_down_gradient_bar);}.cls-3{opacity:0.05;}.cls-10,.cls-11,.cls-12,.cls-13,.cls-14,.cls-15,.cls-16,.cls-17,.cls-18,.cls-19,.cls-20,.cls-21,.cls-22,.cls-23,.cls-24,.cls-25,.cls-26,.cls-27,.cls-28,.cls-29,.cls-30,.cls-31,.cls-32,.cls-33,.cls-34,.cls-35,.cls-36,.cls-37,.cls-38,.cls-39,.cls-4,.cls-40,.cls-41,.cls-42,.cls-43,.cls-44,.cls-46,.cls-47,.cls-48,.cls-49,.cls-5,.cls-50,.cls-51,.cls-52,.cls-53,.cls-54,.cls-55,.cls-56,.cls-57,.cls-58,.cls-59,.cls-6,.cls-60,.cls-61,.cls-62,.cls-63,.cls-64,.cls-65,.cls-66,.cls-67,.cls-68,.cls-69,.cls-7,.cls-70,.cls-71,.cls-72,.cls-73,.cls-74,.cls-75,.cls-76,.cls-77,.cls-78,.cls-79,.cls-8,.cls-80,.cls-81,.cls-82,.cls-83,.cls-84,.cls-85,.cls-86,.cls-87,.cls-88,.cls-89,.cls-9,.cls-90,.cls-91,.cls-92,.cls-93,.cls-94,.cls-95{stroke:#50ceff;}.cls-4{fill:url(#linear-gradient-2);}.cls-5{fill:url(#linear-gradient-3);}.cls-6{fill:url(#linear-gradient-4);}.cls-7{fill:url(#linear-gradient-5);}.cls-8{fill:url(#linear-gradient-6);}.cls-9{stroke-width:4.04px;fill:url(#linear-gradient-7);}.cls-10{fill:url(#linear-gradient-8);}.cls-11{fill:url(#linear-gradient-9);}.cls-12{fill:url(#linear-gradient-10);}.cls-13{fill:url(#linear-gradient-11);}.cls-14{fill:url(#linear-gradient-12);}.cls-15{fill:url(#linear-gradient-13);}.cls-16{fill:url(#linear-gradient-14);}.cls-17{fill:url(#linear-gradient-15);}.cls-18{fill:url(#linear-gradient-16);}.cls-19{fill:url(#linear-gradient-17);}.cls-20{fill:url(#linear-gradient-18);}.cls-21{stroke-width:3.89px;fill:url(#linear-gradient-19);}.cls-22{fill:url(#linear-gradient-20);}.cls-23{fill:url(#linear-gradient-21);}.cls-24{fill:url(#linear-gradient-22);}.cls-25{fill:url(#linear-gradient-23);}.cls-26{fill:url(#linear-gradient-24);}.cls-27{fill:url(#linear-gradient-25);}.cls-28{fill:url(#linear-gradient-26);}.cls-29{fill:url(#linear-gradient-27);}.cls-30{fill:url(#linear-gradient-28);}.cls-31{fill:url(#linear-gradient-29);}.cls-32{fill:url(#linear-gradient-30);}.cls-33{fill:url(#linear-gradient-31);}.cls-34{fill:url(#linear-gradient-32);}.cls-35{fill:url(#linear-gradient-33);}.cls-36{fill:url(#linear-gradient-34);}.cls-37{fill:url(#linear-gradient-35);}.cls-38{fill:url(#linear-gradient-36);}.cls-39{fill:url(#linear-gradient-37);}.cls-40{fill:url(#linear-gradient-38);}.cls-41{fill:url(#linear-gradient-39);}.cls-42{fill:url(#linear-gradient-40);}.cls-43{fill:url(#linear-gradient-41);}.cls-44{fill:url(#linear-gradient-42);}.cls-45{opacity:0.04;}.cls-46{fill:url(#linear-gradient-43);}.cls-47{fill:url(#linear-gradient-44);}.cls-48{fill:url(#linear-gradient-45);}.cls-49{fill:url(#linear-gradient-46);}.cls-50{fill:url(#linear-gradient-47);}.cls-51{fill:url(#linear-gradient-48);}.cls-52{fill:url(#linear-gradient-49);}.cls-53{fill:url(#linear-gradient-50);}.cls-54{fill:url(#linear-gradient-51);}.cls-55{fill:url(#linear-gradient-52);}.cls-56{fill:url(#linear-gradient-53);}.cls-57{fill:url(#linear-gradient-54);}.cls-58{fill:url(#linear-gradient-55);}.cls-59{fill:url(#linear-gradient-56);}.cls-60{fill:url(#linear-gradient-57);}.cls-61{fill:url(#linear-gradient-58);}.cls-62{fill:url(#linear-gradient-59);}.cls-63{fill:url(#linear-gradient-60);}.cls-64{fill:url(#linear-gradient-61);}.cls-65{fill:url(#linear-gradient-62);}.cls-66{fill:url(#linear-gradient-63);}.cls-67{fill:url(#linear-gradient-64);}.cls-68{fill:url(#linear-gradient-65);}.cls-69{fill:url(#linear-gradient-66);}.cls-70{fill:url(#linear-gradient-67);}.cls-71{fill:url(#linear-gradient-68);}.cls-72{fill:url(#linear-gradient-69);}.cls-73{fill:url(#linear-gradient-70);}.cls-74{fill:url(#linear-gradient-71);}.cls-75{fill:url(#linear-gradient-72);}.cls-76{fill:url(#linear-gradient-73);}.cls-77{fill:url(#linear-gradient-74);}.cls-78{fill:url(#linear-gradient-75);}.cls-79{fill:url(#linear-gradient-76);}.cls-80{fill:url(#linear-gradient-77);}.cls-81{fill:url(#linear-gradient-78);}.cls-82{fill:url(#linear-gradient-79);}.cls-83{fill:url(#linear-gradient-80);}.cls-84{fill:url(#linear-gradient-81);}.cls-85{fill:url(#linear-gradient-82);}.cls-86{fill:url(#linear-gradient-83);}.cls-87{fill:url(#linear-gradient-84);}.cls-88{fill:url(#linear-gradient-85);}.cls-89{fill:url(#linear-gradient-86);}.cls-90{fill:url(#linear-gradient-87);}.cls-91{fill:url(#linear-gradient-88);}.cls-92{fill:url(#linear-gradient-89);}.cls-93{fill:url(#linear-gradient-90);}.cls-94{fill:url(#linear-gradient-91);}.cls-95{fill:url(#linear-gradient-92);}</style><linearGradient id="linear-gradient" x1="1392.03" y1="487.38" x2="1335.03" y2="454.48" gradientTransform="matrix(-1, 0, 0, 1, 3226.6, 0)" gradientUnits="userSpaceOnUse"><stop offset="0" stop-color="#014ca8" stop-opacity="0.1"/><stop offset="0.48" stop-color="#0eb7e8" stop-opacity="0.1"/><stop offset="1" stop-color="#12ddff" stop-opacity="0.1"/></linearGradient><linearGradient id="top_down_gradient_bar" x1="1242.85" y1="1029.8" x2="1199.4" y2="1004.71" gradientTransform="matrix(-1, 0, 0, 1, 1627.73, 0)" xlink:href="#linear-gradient"/><linearGradient id="linear-gradient-2" x1="761.25" y1="605.59" x2="620.14" y2="464.47" gradientUnits="userSpaceOnUse"><stop offset="0" stop-color="#50ceff" stop-opacity="0.8"/><stop offset="0.51" stop-color="#50ceff" stop-opacity="0"/><stop offset="0.56" stop-color="#50ceff" stop-opacity="0.02"/><stop offset="0.62" stop-color="#50ceff" stop-opacity="0.09"/><stop offset="0.69" stop-color="#50ceff" stop-opacity="0.19"/><stop offset="0.76" stop-color="#50ceff" stop-opacity="0.34"/><stop offset="0.84" stop-color="#50ceff" stop-opacity="0.53"/><stop offset="0.92" stop-color="#50ceff" stop-opacity="0.76"/><stop offset="1" stop-color="#50ceff"/></linearGradient><linearGradient id="linear-gradient-3" x1="953.22" y1="273.38" x2="812.1" y2="132.26" xlink:href="#linear-gradient-2"/><linearGradient id="linear-gradient-4" x1="1148.44" y1="567.16" x2="1084.18" y2="502.9" xlink:href="#linear-gradient-2"/><linearGradient id="linear-gradient-5" x1="1370.92" y1="813.83" x2="1306.66" y2="749.57" xlink:href="#linear-gradient-2"/><linearGradient id="linear-gradient-6" x1="1178.43" y1="892.92" x2="1114.17" y2="828.66" xlink:href="#linear-gradient-2"/><linearGradient id="linear-gradient-7" x1="1065.47" y1="686.57" x2="971.81" y2="592.92" xlink:href="#linear-gradient-2"/><linearGradient id="linear-gradient-8" x1="376.23" y1="320.15" x2="283.56" y2="227.48" xlink:href="#linear-gradient-2"/><linearGradient id="linear-gradient-9" x1="1793.34" y1="189.6" x2="1700.67" y2="96.94" xlink:href="#linear-gradient-2"/><linearGradient id="linear-gradient-10" x1="1752.94" y1="481.87" x2="1660.28" y2="389.2" xlink:href="#linear-gradient-2"/><linearGradient id="linear-gradient-11" x1="153.6" y1="618.23" x2="60.93" y2="525.56" xlink:href="#linear-gradient-2"/><linearGradient id="linear-gradient-12" x1="502.02" y1="983.52" x2="409.35" y2="890.85" xlink:href="#linear-gradient-2"/><linearGradient id="linear-gradient-13" x1="703.41" y1="589.76" x2="650.5" y2="536.85" xlink:href="#linear-gradient-2"/><linearGradient id="linear-gradient-14" x1="304.73" y1="895.01" x2="251.82" y2="842.1" xlink:href="#linear-gradient-2"/><linearGradient id="linear-gradient-15" x1="657.8" y1="245.19" x2="604.89" y2="192.28" xlink:href="#linear-gradient-2"/><linearGradient id="linear-gradient-16" x1="1647.02" y1="996.83" x2="1594.11" y2="943.92" xlink:href="#linear-gradient-2"/><linearGradient id="linear-gradient-17" x1="731.36" y1="792.29" x2="678.46" y2="739.38" xlink:href="#linear-gradient-2"/><linearGradient id="linear-gradient-18" x1="193.17" y1="118.81" x2="140.26" y2="65.9" xlink:href="#linear-gradient-2"/><linearGradient id="linear-gradient-19" x1="1045.43" y1="392.5" x2="993.93" y2="341" xlink:href="#linear-gradient-2"/><linearGradient id="linear-gradient-20" x1="1398.51" y1="118.81" x2="1345.6" y2="65.9" xlink:href="#linear-gradient-2"/><linearGradient id="linear-gradient-21" x1="1400.44" y1="431.06" x2="1367.01" y2="397.63" xlink:href="#linear-gradient-2"/><linearGradient id="linear-gradient-22" x1="919.26" y1="499.26" x2="885.84" y2="465.83" xlink:href="#linear-gradient-2"/><linearGradient id="linear-gradient-23" x1="1826.85" y1="269.56" x2="1793.42" y2="236.13" xlink:href="#linear-gradient-2"/><linearGradient id="linear-gradient-24" x1="513.07" y1="689.38" x2="448.81" y2="625.12" xlink:href="#linear-gradient-2"/><linearGradient id="linear-gradient-25" x1="1852.27" y1="561.48" x2="1799.36" y2="508.57" xlink:href="#linear-gradient-2"/><linearGradient id="linear-gradient-26" x1="850.87" y1="998.38" x2="797.96" y2="945.47" xlink:href="#linear-gradient-2"/><linearGradient id="linear-gradient-27" x1="1708.02" y1="810.56" x2="1655.11" y2="757.65" xlink:href="#linear-gradient-2"/><linearGradient id="linear-gradient-28" x1="1380.09" y1="-1080.36" x2="1338.33" y2="-1122.12" gradientTransform="matrix(0.5, 0.87, 0.87, -0.5, 709.92, -1314.32)" xlink:href="#linear-gradient-2"/><linearGradient id="linear-gradient-29" x1="1674.06" y1="-290.12" x2="1632.3" y2="-331.88" gradientTransform="matrix(0.5, 0.87, 0.87, -0.5, 709.92, -1314.32)" xlink:href="#linear-gradient-2"/><linearGradient id="linear-gradient-30" x1="1850.69" y1="15.64" x2="1808.93" y2="-26.11" gradientTransform="matrix(0.5, 0.87, 0.87, -0.5, 709.92, -1314.32)" xlink:href="#linear-gradient-2"/><linearGradient id="linear-gradient-31" x1="1317.96" y1="-1185.27" x2="1283.58" y2="-1219.65" gradientTransform="matrix(0.5, 0.87, 0.87, -0.5, 709.92, -1314.32)" xlink:href="#linear-gradient-2"/><linearGradient id="linear-gradient-32" x1="1096.93" y1="-925.41" x2="1063.73" y2="-958.62" gradientTransform="matrix(0.5, 0.87, 0.87, -0.5, 709.92, -1314.32)" xlink:href="#linear-gradient-2"/><linearGradient id="linear-gradient-33" x1="1692.14" y1="-1630.79" x2="1657.76" y2="-1665.18" gradientTransform="matrix(0.5, 0.87, 0.87, -0.5, 709.92, -1314.32)" xlink:href="#linear-gradient-2"/><linearGradient id="linear-gradient-34" x1="1872.55" y1="-1131.75" x2="1838.17" y2="-1166.13" gradientTransform="matrix(0.52, 0.86, 0.86, -0.52, 672.72, -1320.78)" xlink:href="#linear-gradient-2"/><linearGradient id="linear-gradient-35" x1="2198.05" y1="-266.24" x2="2163.67" y2="-300.62" gradientTransform="matrix(0.52, 0.86, 0.86, -0.52, 672.72, -1320.78)" xlink:href="#linear-gradient-2"/><linearGradient id="linear-gradient-36" x1="2338.03" y1="-573.72" x2="2303.65" y2="-608.1" gradientTransform="matrix(0.52, 0.86, 0.86, -0.52, 672.72, -1320.78)" xlink:href="#linear-gradient-2"/><linearGradient id="linear-gradient-37" x1="1516.14" y1="-333.47" x2="1481.75" y2="-367.85" gradientTransform="matrix(0.52, 0.86, 0.86, -0.52, 672.72, -1320.78)" xlink:href="#linear-gradient-2"/><linearGradient id="linear-gradient-38" x1="1902.31" y1="-213.97" x2="1880.59" y2="-235.69" gradientTransform="matrix(0.52, 0.86, 0.86, -0.52, 672.72, -1320.78)" xlink:href="#linear-gradient-2"/><linearGradient id="linear-gradient-39" x1="1703.67" y1="-134.3" x2="1681.94" y2="-156.02" gradientTransform="matrix(0.52, 0.86, 0.86, -0.52, 672.72, -1320.78)" xlink:href="#linear-gradient-2"/><linearGradient id="linear-gradient-40" x1="1339.36" y1="-434.7" x2="1317.63" y2="-456.42" gradientTransform="matrix(0.52, 0.86, 0.86, -0.52, 672.72, -1320.78)" xlink:href="#linear-gradient-2"/><linearGradient id="linear-gradient-41" x1="2238.68" y1="-655" x2="2216.96" y2="-676.72" gradientTransform="matrix(0.52, 0.86, 0.86, -0.52, 672.72, -1320.78)" xlink:href="#linear-gradient-2"/><linearGradient id="linear-gradient-42" x1="1368.22" y1="-929.55" x2="1346.49" y2="-951.27" gradientTransform="matrix(0.52, 0.86, 0.86, -0.52, 672.72, -1320.78)" xlink:href="#linear-gradient-2"/><linearGradient id="linear-gradient-43" y1="571.9" x2="39.43" y2="571.9" gradientUnits="userSpaceOnUse"><stop offset="0" stop-color="#50ceff" stop-opacity="0.1"/><stop offset="0.49" stop-color="#50ceff" stop-opacity="0.02"/><stop offset="0.6" stop-color="#50ceff" stop-opacity="0.04"/><stop offset="0.74" stop-color="#50ceff" stop-opacity="0.11"/><stop offset="0.89" stop-color="#50ceff" stop-opacity="0.21"/><stop offset="1" stop-color="#50ceff" stop-opacity="0.3"/></linearGradient><linearGradient id="linear-gradient-44" x1="1780.74" y1="42.26" x2="1829.79" y2="42.26" xlink:href="#linear-gradient-43"/><linearGradient id="linear-gradient-45" x1="793.54" y1="535.03" x2="1069.08" y2="535.03" xlink:href="#linear-gradient-43"/><linearGradient id="linear-gradient-46" x1="1393.52" y1="970.37" x2="1581.84" y2="970.37" xlink:href="#linear-gradient-43"/><linearGradient id="linear-gradient-47" x1="675.11" y1="860.79" x2="1099.26" y2="860.79" xlink:href="#linear-gradient-43"/><linearGradient id="linear-gradient-48" x1="205.45" y1="92.36" x2="410.31" y2="92.36" xlink:href="#linear-gradient-43"/><linearGradient id="linear-gradient-49" x1="1.6" y1="273.82" x2="262.06" y2="273.82" xlink:href="#linear-gradient-43"/><linearGradient id="linear-gradient-50" y1="482.55" x2="878.08" y2="482.55" xlink:href="#linear-gradient-43"/><linearGradient id="linear-gradient-51" x1="1408.2" y1="414.35" x2="1443.42" y2="414.35" xlink:href="#linear-gradient-43"/><linearGradient id="linear-gradient-52" x1="1834.61" y1="252.85" x2="1881.16" y2="252.85" xlink:href="#linear-gradient-43"/><linearGradient id="linear-gradient-53" x1="1163.35" y1="535.03" x2="1787.08" y2="535.03" xlink:href="#linear-gradient-43"/><linearGradient id="linear-gradient-54" x1="1774.45" y1="435.54" x2="1881.16" y2="435.54" xlink:href="#linear-gradient-43"/><linearGradient id="linear-gradient-55" x1="1173.67" y1="143.01" x2="1679.17" y2="143.01" xlink:href="#linear-gradient-43"/><linearGradient id="linear-gradient-56" x1="985.97" y1="202.78" x2="1408.78" y2="202.78" xlink:href="#linear-gradient-43"/><linearGradient id="linear-gradient-57" x1="1.6" y1="657.25" x2="433.34" y2="657.25" xlink:href="#linear-gradient-43"/><linearGradient id="linear-gradient-58" x1="459.28" y1="92.35" x2="1333.32" y2="92.35" xlink:href="#linear-gradient-43"/><linearGradient id="linear-gradient-59" x1="1.6" y1="92.36" x2="127.99" y2="92.36" xlink:href="#linear-gradient-43"/><linearGradient id="linear-gradient-60" x1="1038.01" y1="446.84" x2="1092.79" y2="446.84" xlink:href="#linear-gradient-43"/><linearGradient id="linear-gradient-61" x1="1780.92" y1="216.84" x2="1797.9" y2="216.84" xlink:href="#linear-gradient-43"/><linearGradient id="linear-gradient-62" x1="1052.99" y1="759.52" x2="1122.78" y2="759.52" xlink:href="#linear-gradient-43"/><linearGradient id="linear-gradient-63" x1="1701.1" y1="659.57" x2="1806.17" y2="659.57" xlink:href="#linear-gradient-43"/><linearGradient id="linear-gradient-64" x1="1139.83" y1="396.76" x2="1252.44" y2="396.76" xlink:href="#linear-gradient-43"/><linearGradient id="linear-gradient-65" x1="1285.21" y1="186.08" x2="1352.69" y2="186.08" xlink:href="#linear-gradient-43"/><linearGradient id="linear-gradient-66" x1="1740.5" y1="325.42" x2="1797.9" y2="325.42" xlink:href="#linear-gradient-43"/><linearGradient id="linear-gradient-67" x1="1391.51" y1="29.98" x2="1423.84" y2="29.98" xlink:href="#linear-gradient-43"/><linearGradient id="linear-gradient-68" x1="1571.18" y1="582.16" x2="1672.77" y2="582.16" xlink:href="#linear-gradient-43"/><linearGradient id="linear-gradient-69" x1="1038.53" y1="249.7" x2="1136.33" y2="249.7" xlink:href="#linear-gradient-43"/><linearGradient id="linear-gradient-70" x1="742.3" y1="368.92" x2="831.01" y2="368.92" xlink:href="#linear-gradient-43"/><linearGradient id="linear-gradient-71" x1="363.66" y1="164.24" x2="422.46" y2="164.24" xlink:href="#linear-gradient-43"/><linearGradient id="linear-gradient-72" x1="1395.81" y1="197.15" x2="1623.33" y2="197.15" xlink:href="#linear-gradient-43"/><linearGradient id="linear-gradient-73" x1="489.63" y1="751.46" x2="639.04" y2="751.46" xlink:href="#linear-gradient-43"/><linearGradient id="linear-gradient-74" x1="844.56" y1="817.96" x2="984.54" y2="817.96" xlink:href="#linear-gradient-43"/><linearGradient id="linear-gradient-75" x1="662.09" y1="819.41" x2="685.57" y2="819.41" xlink:href="#linear-gradient-43"/><linearGradient id="linear-gradient-76" x1="1139.83" y1="762.44" x2="1355.38" y2="762.44" xlink:href="#linear-gradient-43"/><linearGradient id="linear-gradient-77" x1="742.35" y1="831.53" x2="978.56" y2="831.53" xlink:href="#linear-gradient-43"/><linearGradient id="linear-gradient-78" x1="579.17" y1="393.67" x2="639.09" y2="393.67" xlink:href="#linear-gradient-43"/><linearGradient id="linear-gradient-79" x1="141.18" y1="732.83" x2="258.91" y2="732.83" xlink:href="#linear-gradient-43"/><linearGradient id="linear-gradient-80" x1="446.77" y1="213.58" x2="562.38" y2="213.58" xlink:href="#linear-gradient-43"/><linearGradient id="linear-gradient-81" x1="1065.83" y1="61.39" x2="1135.4" y2="61.39" xlink:href="#linear-gradient-43"/><linearGradient id="linear-gradient-82" x1="765.77" y1="56.86" x2="831" y2="56.86" xlink:href="#linear-gradient-43"/><linearGradient id="linear-gradient-83" x1="1381.37" y1="1015.48" x2="1406.3" y2="1015.48" xlink:href="#linear-gradient-43"/><linearGradient id="linear-gradient-84" x1="344.53" y1="413.5" x2="405.67" y2="413.5" xlink:href="#linear-gradient-43"/><linearGradient id="linear-gradient-85" x1="133.25" y1="689.26" x2="420.96" y2="689.26" xlink:href="#linear-gradient-43"/><linearGradient id="linear-gradient-86" x1="1362.33" y1="520.08" x2="1605.45" y2="520.08" xlink:href="#linear-gradient-43"/><linearGradient id="linear-gradient-87" x1="1263.74" y1="869.28" x2="1315.31" y2="869.28" xlink:href="#linear-gradient-43"/><linearGradient id="linear-gradient-88" x1="578.34" y1="282.86" x2="612" y2="282.86" xlink:href="#linear-gradient-43"/><linearGradient id="linear-gradient-89" x1="186.04" y1="29.68" x2="218.1" y2="29.68" xlink:href="#linear-gradient-43"/><linearGradient id="linear-gradient-90" x1="447.01" y1="35.78" x2="485.76" y2="35.78" xlink:href="#linear-gradient-43"/><linearGradient id="linear-gradient-91" x1="450.94" y1="194.01" x2="673.65" y2="194.01" xlink:href="#linear-gradient-43"/><linearGradient id="linear-gradient-92" y1="253.6" x2="147.37" y2="253.6" xlink:href="#linear-gradient-43"/></defs><title>Artboard 2</title><g id="Layer_5" data-name="Layer 5"><line class="cls-1" x1="1881.12" y1="440.38" x2="1845.03" y2="501.48"/><line class="cls-2" x1="420.96" y1="995.94" x2="392.25" y2="1038.57"/><g class="cls-3"><polygon class="cls-4" points="742.35 445.56 639.04 445.56 587.39 535.03 639.04 624.49 742.35 624.49 794 535.03 742.35 445.56"/><polygon class="cls-5" points="934.31 113.35 831.01 113.35 779.35 202.82 831.01 292.28 934.31 292.28 985.97 202.82 934.31 113.35"/><polygon class="cls-6" points="1139.83 494.29 1092.79 494.29 1069.27 535.03 1092.79 575.77 1139.83 575.77 1163.35 535.03 1139.83 494.29"/><polygon class="cls-7" points="1362.31 740.96 1315.27 740.96 1291.75 781.7 1315.27 822.44 1362.31 822.44 1385.83 781.7 1362.31 740.96"/><polygon class="cls-8" points="1169.82 820.05 1122.78 820.05 1099.26 860.79 1122.78 901.52 1169.82 901.52 1193.34 860.79 1169.82 820.05"/><polygon class="cls-9" points="1052.92 580.37 984.36 580.37 950.08 639.74 984.36 699.11 1052.92 699.11 1087.2 639.74 1052.92 580.37"/><polygon class="cls-10" points="363.81 215.07 295.97 215.07 262.06 273.82 295.97 332.57 363.81 332.57 397.73 273.82 363.81 215.07"/><polygon class="cls-11" points="1780.92 84.52 1713.09 84.52 1679.17 143.27 1713.09 202.02 1780.92 202.02 1814.84 143.27 1780.92 84.52"/><polygon class="cls-12" points="1740.53 376.79 1672.69 376.79 1638.77 435.54 1672.69 494.29 1740.53 494.29 1774.45 435.54 1740.53 376.79"/><polygon class="cls-13" points="141.18 513.15 73.35 513.15 39.43 571.9 73.35 630.65 141.18 630.65 175.1 571.9 141.18 513.15"/><polygon class="cls-14" points="489.6 878.44 421.77 878.44 387.85 937.19 421.77 995.93 489.6 995.93 523.52 937.19 489.6 878.44"/><polygon class="cls-15" points="696.32 529.76 657.59 529.76 638.22 563.3 657.59 596.85 696.32 596.85 715.68 563.3 696.32 529.76"/><polygon class="cls-16" points="297.64 835.01 258.91 835.01 239.54 868.55 258.91 902.1 297.64 902.1 317.01 868.55 297.64 835.01"/><polygon class="cls-17" points="650.71 185.2 611.98 185.2 592.61 218.74 611.98 252.28 650.71 252.28 670.08 218.74 650.71 185.2"/><polygon class="cls-18" points="1639.94 936.83 1601.2 936.83 1581.84 970.37 1601.2 1003.91 1639.94 1003.91 1659.3 970.37 1639.94 936.83"/><polygon class="cls-19" points="724.28 732.3 685.54 732.3 666.18 765.84 685.54 799.38 724.28 799.38 743.64 765.84 724.28 732.3"/><polygon class="cls-20" points="186.09 58.81 147.35 58.81 127.99 92.36 147.35 125.9 186.09 125.9 205.45 92.36 186.09 58.81"/><polygon class="cls-21" points="1038.53 334.1 1000.83 334.1 981.98 366.75 1000.83 399.4 1038.53 399.4 1057.38 366.75 1038.53 334.1"/><polygon class="cls-22" points="1391.42 58.81 1352.69 58.81 1333.33 92.36 1352.69 125.9 1391.42 125.9 1410.79 92.36 1391.42 58.81"/><polygon class="cls-23" points="1395.96 393.15 1371.49 393.15 1359.25 414.35 1371.49 435.54 1395.96 435.54 1408.2 414.35 1395.96 393.15"/><polygon class="cls-24" points="914.79 461.36 890.32 461.36 878.08 482.55 890.32 503.74 914.79 503.74 927.02 482.55 914.79 461.36"/><polygon class="cls-25" points="1822.37 231.66 1797.9 231.66 1785.67 252.85 1797.9 274.04 1822.37 274.04 1834.61 252.85 1822.37 231.66"/><polygon class="cls-26" points="504.46 616.51 457.42 616.51 433.9 657.25 457.42 697.99 504.46 697.99 527.98 657.25 504.46 616.51"/><polygon class="cls-27" points="1845.18 501.48 1806.45 501.48 1787.08 535.03 1806.45 568.57 1845.18 568.57 1864.55 535.03 1845.18 501.48"/><polygon class="cls-28" points="843.78 938.38 805.05 938.38 785.68 971.92 805.05 1005.47 843.78 1005.47 863.15 971.92 843.78 938.38"/><polygon class="cls-29" points="1700.94 750.57 1662.2 750.57 1642.84 784.11 1662.2 817.65 1700.94 817.65 1720.3 784.11 1700.94 750.57"/><polygon class="cls-30" points="420.96 439.96 405.67 413.49 420.95 387.01 451.52 387.01 466.81 413.48 451.53 439.95 420.96 439.96"/><polygon class="cls-31" points="1252.28 299.22 1236.99 272.75 1252.27 246.27 1282.84 246.26 1298.13 272.73 1282.85 299.21 1252.28 299.22"/><polygon class="cls-32" points="1605.4 299.22 1590.11 272.75 1605.38 246.27 1635.95 246.26 1651.24 272.73 1635.97 299.21 1605.4 299.22"/><polygon class="cls-33" points="306.78 435.31 294.19 413.52 306.77 391.72 331.94 391.71 344.53 413.5 331.95 435.31 306.78 435.31"/><polygon class="cls-34" points="422.46 113.4 410.31 92.36 422.45 71.3 446.76 71.3 458.92 92.34 446.77 113.4 422.46 113.4"/><polygon class="cls-35" points="108.17 982.17 95.58 960.37 108.16 938.57 133.33 938.57 145.92 960.36 133.34 982.16 108.17 982.17"/><polygon class="cls-36" points="637.81 883.45 624.78 861.91 636.92 839.86 662.08 839.35 675.11 860.88 662.97 882.93 637.81 883.45"/><polygon class="cls-37" points="1546.84 713.99 1533.82 692.45 1545.95 670.4 1571.12 669.89 1584.14 691.43 1572.01 713.48 1546.84 713.99"/><polygon class="cls-38" points="1356.2 992.91 1343.18 971.37 1355.31 949.32 1380.48 948.81 1393.51 970.35 1381.37 992.39 1356.2 992.91"/><polygon class="cls-39" points="1136.37 165.32 1123.34 143.78 1135.47 121.73 1160.64 121.22 1173.67 142.75 1161.53 164.81 1136.37 165.32"/><polygon class="cls-40" points="1451.65 427.91 1443.42 414.3 1451.09 400.37 1466.99 400.05 1475.22 413.65 1467.55 427.58 1451.65 427.91"/><polygon class="cls-41" points="1417.01 216.71 1408.78 203.1 1416.45 189.17 1432.34 188.85 1440.58 202.45 1432.91 216.38 1417.01 216.71"/><polygon class="cls-42" points="971.42 60.47 963.19 46.87 970.86 32.94 986.75 32.61 994.99 46.22 987.32 60.15 971.42 60.47"/><polygon class="cls-43" points="1248.39 943.99 1240.16 930.38 1247.83 916.45 1263.73 916.13 1271.96 929.73 1264.29 943.66 1248.39 943.99"/><polygon class="cls-44" points="562.94 341.29 554.71 327.69 562.38 313.76 578.28 313.43 586.51 327.04 578.84 340.97 562.94 341.29"/></g><g class="cls-45"><line class="cls-46" y1="571.9" x2="39.43" y2="571.89"/><line class="cls-47" x1="1829.79" x2="1780.74" y2="84.52"/><line class="cls-48" x1="793.54" y1="535.03" x2="1069.08" y2="535.03"/><line class="cls-49" x1="1393.52" y1="970.37" x2="1581.84" y2="970.37"/><line class="cls-50" x1="675.11" y1="860.79" x2="1099.26" y2="860.79"/><line class="cls-51" x1="205.45" y1="92.36" x2="410.31" y2="92.36"/><line class="cls-52" x1="1.6" y1="273.82" x2="262.06" y2="273.82"/><line class="cls-53" y1="482.55" x2="878.08" y2="482.55"/><line class="cls-54" x1="1408.2" y1="414.35" x2="1443.42" y2="414.35"/><line class="cls-55" x1="1834.61" y1="252.85" x2="1881.16" y2="252.85"/><line class="cls-56" x1="1163.35" y1="535.03" x2="1787.08" y2="535.03"/><line class="cls-57" x1="1774.45" y1="435.54" x2="1881.16" y2="435.54"/><line class="cls-58" x1="1173.67" y1="142.76" x2="1679.17" y2="143.27"/><line class="cls-59" x1="985.97" y1="202.56" x2="1408.78" y2="202.99"/><line class="cls-60" x1="1.6" y1="657.25" x2="433.34" y2="657.25"/><line class="cls-61" x1="459.28" y1="92.35" x2="1333.32" y2="92.36"/><line class="cls-62" x1="1.6" y1="92.36" x2="127.99" y2="92.36"/><line class="cls-63" x1="1038.01" y1="399.4" x2="1092.79" y2="494.29"/><line class="cls-64" x1="1780.92" y1="202.02" x2="1797.9" y2="231.66"/><line class="cls-65" x1="1052.99" y1="699" x2="1122.78" y2="820.05"/><line class="cls-66" x1="1806.17" y1="568.57" x2="1701.1" y2="750.56"/><line class="cls-67" x1="1252.44" y1="299.23" x2="1139.83" y2="494.29"/><line class="cls-68" x1="1352.69" y1="125.9" x2="1285.21" y2="246.26"/><line class="cls-69" x1="1797.9" y1="274.04" x2="1740.5" y2="376.79"/><line class="cls-70" x1="1423.84" y1="1.16" x2="1391.51" y2="58.81"/><line class="cls-71" x1="1672.77" y1="494.42" x2="1571.18" y2="669.89"/><line class="cls-72" x1="1136.33" y1="165.3" x2="1038.53" y2="334.1"/><line class="cls-73" x1="831.01" y1="292.28" x2="742.3" y2="445.56"/><line class="cls-74" x1="422.46" y1="113.4" x2="363.66" y2="215.07"/><line class="cls-75" x1="1623.33" y1="1.16" x2="1395.81" y2="393.15"/><line class="cls-76" x1="639.04" y1="624.49" x2="489.63" y2="878.44"/><line class="cls-77" x1="984.54" y1="699" x2="844.56" y2="936.92"/><line class="cls-78" x1="685.57" y1="799.45" x2="662.09" y2="839.37"/><line class="cls-79" x1="1139.83" y1="575.77" x2="1355.38" y2="949.11"/><line class="cls-80" x1="742.35" y1="624.49" x2="978.56" y2="1038.57"/><line class="cls-81" x1="579.17" y1="341.78" x2="639.09" y2="445.56"/><line class="cls-82" x1="141.18" y1="630.65" x2="258.91" y2="835.01"/><line class="cls-83" x1="446.77" y1="113.4" x2="562.38" y2="313.76"/><line class="cls-84" x1="1065.83" y1="1.14" x2="1135.4" y2="121.65"/><line class="cls-85" x1="765.77" y1="0.37" x2="831" y2="113.35"/><line class="cls-86" x1="1381.37" y1="992.4" x2="1406.3" y2="1038.57"/><line class="cls-87" x1="344.53" y1="413.51" x2="405.67" y2="413.49"/><line class="cls-88" x1="133.25" y1="938.57" x2="420.96" y2="439.96"/><line class="cls-89" x1="1362.33" y1="740.92" x2="1605.45" y2="299.23"/><line class="cls-90" x1="1263.74" y1="916.13" x2="1315.31" y2="822.44"/><line class="cls-91" x1="578.34" y1="313.43" x2="612" y2="252.28"/><line class="cls-92" x1="186.04" y1="58.81" x2="218.1" y2="0.55"/><line class="cls-93" x1="447.01" y1="70.98" x2="485.76" y2="0.59"/><line class="cls-94" x1="450.94" y1="386.99" x2="673.65" y2="1.03"/><line class="cls-95" y1="381.3" x2="147.37" y2="125.9"/></g></g></svg>