<?xml version="1.0" encoding="UTF-8"?>
<svg xmlns="http://www.w3.org/2000/svg" xmlns:xlink="http://www.w3.org/1999/xlink" id="Layer_1" x="0px" y="0px" viewBox="0 0 111.2 157.9" style="enable-background:new 0 0 111.2 157.9;" xml:space="preserve">
<style type="text/css">
	.st0{fill:#D9D8D6;}
</style>
<g>
	<path class="st0" d="M110.3,59.3L87.8,36.8V20.5c0-1.7-1.3-3-3-3H70.3V3c0-1.7-1.3-3-3-3s-3,1.3-3,3v14.5H52.7V8.8c0-1.7-1.3-3-3-3   s-3,1.3-3,3v8.7H3c-1.7,0-3,1.3-3,3v134.4c0,1.7,1.3,3,3,3h29.2c0,0,0,0,0,0s0,0,0,0h23.3c0,0,0,0,0,0s0,0,0,0h29.2h23.4   c1.7,0,3-1.3,3-3V61.4C111.2,60.6,110.8,59.9,110.3,59.3z M6,23.5h42.8c0.3,0.1,0.6,0.2,0.9,0.2s0.6-0.1,0.9-0.2h15.7   c0.3,0.1,0.6,0.2,0.9,0.2s0.6-0.1,0.9-0.2h13.6V38v113.8H58.6v-20.4c0-1.7-1.3-3-3-3c-1.7,0-3,1.3-3,3v20.4H35.2v-20.4   c0-1.7-1.3-3-3-3s-3,1.3-3,3v20.4H6V23.5z M87.8,151.9V45.3l17.4,17.4v13.3h-2.8c-1.7,0-3,1.3-3,3s1.3,3,3,3h2.8v17.4h-2.8   c-1.7,0-3,1.3-3,3s1.3,3,3,3h2.8v17.4h-2.8c-1.7,0-3,1.3-3,3s1.3,3,3,3h2.8v23.2H87.8z"></path>
	<path class="st0" d="M61.4,52.7c1.7,0,3-1.3,3-3v-5.8c0-1.7-1.3-3-3-3s-3,1.3-3,3v5.8C58.4,51.4,59.8,52.7,61.4,52.7z"></path>
	<path class="st0" d="M43.9,52.7c1.7,0,3-1.3,3-3v-5.8c0-1.7-1.3-3-3-3s-3,1.3-3,3v5.8C40.9,51.4,42.2,52.7,43.9,52.7z"></path>
	<path class="st0" d="M61.4,81.9c1.7,0,3-1.3,3-3v-5.8c0-1.7-1.3-3-3-3s-3,1.3-3,3v5.8C58.4,80.6,59.8,81.9,61.4,81.9z"></path>
	<path class="st0" d="M43.9,81.9c1.7,0,3-1.3,3-3v-5.8c0-1.7-1.3-3-3-3s-3,1.3-3,3v5.8C40.9,80.6,42.2,81.9,43.9,81.9z"></path>
	<path class="st0" d="M26.4,81.9c1.7,0,3-1.3,3-3v-5.8c0-1.7-1.3-3-3-3s-3,1.3-3,3v5.8C23.4,80.6,24.7,81.9,26.4,81.9z"></path>
	<path class="st0" d="M26.4,52.7c1.7,0,3-1.3,3-3v-5.8c0-1.7-1.3-3-3-3s-3,1.3-3,3v5.8C23.4,51.4,24.7,52.7,26.4,52.7z"></path>
	<path class="st0" d="M61.4,111.2c1.7,0,3-1.3,3-3v-5.8c0-1.7-1.3-3-3-3s-3,1.3-3,3v5.8C58.4,109.8,59.8,111.2,61.4,111.2z"></path>
	<path class="st0" d="M43.9,111.2c1.7,0,3-1.3,3-3v-5.8c0-1.7-1.3-3-3-3s-3,1.3-3,3v5.8C40.9,109.8,42.2,111.2,43.9,111.2z"></path>
	<path class="st0" d="M29.4,108.2v-5.8c0-1.7-1.3-3-3-3s-3,1.3-3,3v5.8c0,1.7,1.3,3,3,3S29.4,109.8,29.4,108.2z"></path>
</g>
</svg>
