<?xml version="1.0" encoding="UTF-8"?>
<svg xmlns="http://www.w3.org/2000/svg" xmlns:xlink="http://www.w3.org/1999/xlink" id="Layer_1" x="0px" y="0px" viewBox="0 0 111.2 157.9" style="enable-background:new 0 0 111.2 157.9;" xml:space="preserve">
<style type="text/css">
	.st0{fill:#D9D8D6;}
</style>
<g>
	<path class="st0" d="M111.2,55.6C111.2,24.9,86.2,0,55.6,0C24.9,0,0,24.9,0,55.6c0,16,6.8,30.3,17.6,40.5c0,0.1,0,0.3,0,0.4v58.4   c0,1.1,0.6,2.1,1.6,2.6c0.4,0.2,0.9,0.4,1.4,0.4c0.6,0,1.2-0.2,1.7-0.5l33.4-22.3L89,157.4c0.9,0.6,2.1,0.7,3.1,0.1   c1-0.5,1.6-1.5,1.6-2.6V96.5c0-0.1,0-0.3,0-0.4C104.4,85.9,111.2,71.5,111.2,55.6z M6,55.6C6,28.2,28.2,6,55.6,6   s49.6,22.2,49.6,49.6s-22.2,49.6-49.6,49.6S6,82.9,6,55.6z M87.6,149.3L57.2,129c-1-0.7-2.3-0.7-3.3,0l-30.4,20.3v-48.3   c9.1,6.4,20.1,10.2,32.1,10.2c11.9,0,23-3.8,32-10.2V149.3z"></path>
	<path class="st0" d="M35,63.8v9.3c0,1.7,1.3,3,3,3h9.3l6.1,6.1c0.6,0.6,1.3,0.9,2.1,0.9c0.8,0,1.6-0.3,2.1-0.9l6.1-6.1h9.3   c1.7,0,3-1.3,3-3v-9.3l6.1-6.1c0.6-0.6,0.9-1.3,0.9-2.1c0-0.8-0.3-1.6-0.9-2.1l-6.1-6.1V38c0-1.7-1.3-3-3-3h-9.3l-6.1-6.1   c-1.2-1.2-3.1-1.2-4.2,0L47.3,35H38c-1.7,0-3,1.3-3,3v9.3l-6.1,6.1c-1.2,1.2-1.2,3.1,0,4.2L35,63.8z M40.2,50.7   c0.6-0.6,0.9-1.3,0.9-2.1V41h7.5c0.8,0,1.6-0.3,2.1-0.9l4.9-4.9l4.9,4.9c0.6,0.6,1.3,0.9,2.1,0.9h7.5v7.5c0,0.8,0.3,1.6,0.9,2.1   l4.9,4.9L71,60.5c-0.6,0.6-0.9,1.3-0.9,2.1v7.5h-7.5c-0.8,0-1.6,0.3-2.1,0.9l-4.9,4.9L50.7,71c-0.6-0.6-1.3-0.9-2.1-0.9H41v-7.5   c0-0.8-0.3-1.6-0.9-2.1l-4.9-4.9L40.2,50.7z"></path>
</g>
</svg>
